<svg id="visual" viewBox="0 0 1920 1080" width="1920" height="1080" xmlns="http://www.w3.org/2000/svg" xmlns:xlink="http://www.w3.org/1999/xlink" version="1.1"><g stroke-width="1" stroke-linejoin="bevel"><path d="M960 559L846 636L949 638Z" fill="#3f5139" stroke="#3f5139"></path><path d="M960 559L864 509L846 636Z" fill="#2f3b2c" stroke="#2f3b2c"></path><path d="M846 636L855 699L949 638Z" fill="#4f6845" stroke="#4f6845"></path><path d="M855 699L986 690L949 638Z" fill="#546e48" stroke="#546e48"></path><path d="M949 638L1081 641L960 559Z" fill="#374632" stroke="#374632"></path><path d="M991 471L862 463L864 509Z" fill="#3f5139" stroke="#3f5139"></path><path d="M757 518L745 628L846 636Z" fill="#2f3b2c" stroke="#2f3b2c"></path><path d="M1042 473L991 471L960 559Z" fill="#4f6845" stroke="#4f6845"></path><path d="M960 559L991 471L864 509Z" fill="#2f3b2c" stroke="#2f3b2c"></path><path d="M757 518L846 636L864 509Z" fill="#3b4c36" stroke="#3b4c36"></path><path d="M846 636L745 628L855 699Z" fill="#4f6845" stroke="#4f6845"></path><path d="M862 463L757 518L864 509Z" fill="#33402f" stroke="#33402f"></path><path d="M1082 540L1042 473L960 559Z" fill="#4f6845" stroke="#4f6845"></path><path d="M881 344L746 432L862 463Z" fill="#3f5139" stroke="#3f5139"></path><path d="M747 751L871 777L855 699Z" fill="#3b4c36" stroke="#3b4c36"></path><path d="M855 699L871 777L986 690Z" fill="#43573c" stroke="#43573c"></path><path d="M1041 743L1081 641L986 690Z" fill="#2f3b2c" stroke="#2f3b2c"></path><path d="M986 690L1081 641L949 638Z" fill="#2f3b2c" stroke="#2f3b2c"></path><path d="M1081 641L1082 540L960 559Z" fill="#475d3f" stroke="#475d3f"></path><path d="M1032 792L1041 743L994 814Z" fill="#33402f" stroke="#33402f"></path><path d="M757 518L686 603L745 628Z" fill="#2f3b2c" stroke="#2f3b2c"></path><path d="M745 628L747 751L855 699Z" fill="#3b4c36" stroke="#3b4c36"></path><path d="M977 367L862 463L991 471Z" fill="#374632" stroke="#374632"></path><path d="M862 463L746 432L757 518Z" fill="#43573c" stroke="#43573c"></path><path d="M757 518L649 515L686 603Z" fill="#475d3f" stroke="#475d3f"></path><path d="M638 707L747 751L745 628Z" fill="#3f5139" stroke="#3f5139"></path><path d="M1140 619L1125 538L1082 540Z" fill="#4b6242" stroke="#4b6242"></path><path d="M1082 540L1133 482L1042 473Z" fill="#374632" stroke="#374632"></path><path d="M1140 619L1082 540L1081 641Z" fill="#4f6845" stroke="#4f6845"></path><path d="M1025 386L991 471L1042 473Z" fill="#3f5139" stroke="#3f5139"></path><path d="M1025 386L977 367L991 471Z" fill="#3b4c36" stroke="#3b4c36"></path><path d="M1120 382L1025 386L1042 473Z" fill="#4b6242" stroke="#4b6242"></path><path d="M994 814L1041 743L986 690Z" fill="#4f6845" stroke="#4f6845"></path><path d="M1134 692L1140 619L1081 641Z" fill="#4b6242" stroke="#4b6242"></path><path d="M871 777L994 814L986 690Z" fill="#475d3f" stroke="#475d3f"></path><path d="M880 875L994 814L871 777Z" fill="#58744b" stroke="#58744b"></path><path d="M1134 692L1081 641L1041 743Z" fill="#475d3f" stroke="#475d3f"></path><path d="M977 367L881 344L862 463Z" fill="#374632" stroke="#374632"></path><path d="M747 751L771 808L871 777Z" fill="#4f6845" stroke="#4f6845"></path><path d="M1159 804L1134 692L1041 743Z" fill="#546e48" stroke="#546e48"></path><path d="M1215 559L1133 482L1125 538Z" fill="#33402f" stroke="#33402f"></path><path d="M1125 538L1133 482L1082 540Z" fill="#43573c" stroke="#43573c"></path><path d="M746 432L649 515L757 518Z" fill="#546e48" stroke="#546e48"></path><path d="M686 603L638 707L745 628Z" fill="#33402f" stroke="#33402f"></path><path d="M771 808L880 875L871 777Z" fill="#58744b" stroke="#58744b"></path><path d="M607 692L638 707L686 603Z" fill="#2f3b2c" stroke="#2f3b2c"></path><path d="M747 751L671 793L771 808Z" fill="#58744b" stroke="#58744b"></path><path d="M881 344L764 333L746 432Z" fill="#475d3f" stroke="#475d3f"></path><path d="M746 432L649 436L649 515Z" fill="#475d3f" stroke="#475d3f"></path><path d="M659 343L649 436L746 432Z" fill="#4f6845" stroke="#4f6845"></path><path d="M649 515L597 607L686 603Z" fill="#58744b" stroke="#58744b"></path><path d="M582 561L597 607L649 515Z" fill="#43573c" stroke="#43573c"></path><path d="M638 707L671 793L747 751Z" fill="#3b4c36" stroke="#3b4c36"></path><path d="M771 808L798 896L880 875Z" fill="#3f5139" stroke="#3f5139"></path><path d="M564 788L671 793L638 707Z" fill="#546e48" stroke="#546e48"></path><path d="M1133 482L1120 382L1042 473Z" fill="#43573c" stroke="#43573c"></path><path d="M1025 386L969 281L977 367Z" fill="#33402f" stroke="#33402f"></path><path d="M969 281L845 280L881 344Z" fill="#58744b" stroke="#58744b"></path><path d="M597 607L607 692L686 603Z" fill="#3f5139" stroke="#3f5139"></path><path d="M969 281L881 344L977 367Z" fill="#546e48" stroke="#546e48"></path><path d="M881 344L845 280L764 333Z" fill="#546e48" stroke="#546e48"></path><path d="M1083 262L969 281L1025 386Z" fill="#475d3f" stroke="#475d3f"></path><path d="M593 459L582 561L649 515Z" fill="#475d3f" stroke="#475d3f"></path><path d="M446 714L564 788L607 692Z" fill="#3b4c36" stroke="#3b4c36"></path><path d="M1238 622L1215 559L1140 619Z" fill="#3f5139" stroke="#3f5139"></path><path d="M1140 619L1215 559L1125 538Z" fill="#374632" stroke="#374632"></path><path d="M1133 482L1214 425L1120 382Z" fill="#33402f" stroke="#33402f"></path><path d="M845 280L760 301L764 333Z" fill="#58744b" stroke="#58744b"></path><path d="M764 333L659 343L746 432Z" fill="#2f3b2c" stroke="#2f3b2c"></path><path d="M672 932L798 896L771 808Z" fill="#43573c" stroke="#43573c"></path><path d="M552 357L593 459L649 436Z" fill="#3b4c36" stroke="#3b4c36"></path><path d="M649 436L593 459L649 515Z" fill="#374632" stroke="#374632"></path><path d="M994 814L1073 885L1032 792Z" fill="#2f3b2c" stroke="#2f3b2c"></path><path d="M1032 792L1159 804L1041 743Z" fill="#4b6242" stroke="#4b6242"></path><path d="M880 875L980 914L994 814Z" fill="#546e48" stroke="#546e48"></path><path d="M949 973L980 914L880 875Z" fill="#3b4c36" stroke="#3b4c36"></path><path d="M1123 874L1159 804L1032 792Z" fill="#546e48" stroke="#546e48"></path><path d="M1134 692L1238 622L1140 619Z" fill="#43573c" stroke="#43573c"></path><path d="M1228 719L1238 622L1134 692Z" fill="#4b6242" stroke="#4b6242"></path><path d="M980 914L1073 885L994 814Z" fill="#4b6242" stroke="#4b6242"></path><path d="M760 301L659 343L764 333Z" fill="#4f6845" stroke="#4f6845"></path><path d="M1159 804L1228 719L1134 692Z" fill="#3f5139" stroke="#3f5139"></path><path d="M1319 462L1214 425L1215 559Z" fill="#43573c" stroke="#43573c"></path><path d="M1215 559L1214 425L1133 482Z" fill="#4b6242" stroke="#4b6242"></path><path d="M1120 382L1083 262L1025 386Z" fill="#4b6242" stroke="#4b6242"></path><path d="M1073 885L1123 874L1032 792Z" fill="#475d3f" stroke="#475d3f"></path><path d="M1330 732L1333 659L1228 719Z" fill="#2f3b2c" stroke="#2f3b2c"></path><path d="M1142 1002L1123 874L1073 885Z" fill="#58744b" stroke="#58744b"></path><path d="M1160 286L1083 262L1120 382Z" fill="#3f5139" stroke="#3f5139"></path><path d="M969 281L876 168L845 280Z" fill="#33402f" stroke="#33402f"></path><path d="M773 1002L867 972L798 896Z" fill="#3b4c36" stroke="#3b4c36"></path><path d="M798 896L867 972L880 875Z" fill="#3b4c36" stroke="#3b4c36"></path><path d="M980 914L1023 1006L1073 885Z" fill="#3b4c36" stroke="#3b4c36"></path><path d="M867 972L949 973L880 875Z" fill="#2f3b2c" stroke="#2f3b2c"></path><path d="M459 609L607 692L597 607Z" fill="#546e48" stroke="#546e48"></path><path d="M607 692L564 788L638 707Z" fill="#475d3f" stroke="#475d3f"></path><path d="M671 793L672 932L771 808Z" fill="#3b4c36" stroke="#3b4c36"></path><path d="M667 209L650 286L760 301Z" fill="#475d3f" stroke="#475d3f"></path><path d="M760 301L650 286L659 343Z" fill="#374632" stroke="#374632"></path><path d="M552 357L505 467L593 459Z" fill="#2f3b2c" stroke="#2f3b2c"></path><path d="M737 158L760 301L845 280Z" fill="#43573c" stroke="#43573c"></path><path d="M1319 462L1225 371L1214 425Z" fill="#546e48" stroke="#546e48"></path><path d="M1214 425L1225 371L1120 382Z" fill="#3f5139" stroke="#3f5139"></path><path d="M1225 371L1160 286L1120 382Z" fill="#4f6845" stroke="#4f6845"></path><path d="M576 890L672 932L671 793Z" fill="#43573c" stroke="#43573c"></path><path d="M593 459L495 516L582 561Z" fill="#43573c" stroke="#43573c"></path><path d="M582 561L459 609L597 607Z" fill="#33402f" stroke="#33402f"></path><path d="M505 467L495 516L593 459Z" fill="#33402f" stroke="#33402f"></path><path d="M552 357L649 436L659 343Z" fill="#43573c" stroke="#43573c"></path><path d="M1051 146L988 186L1083 262Z" fill="#3f5139" stroke="#3f5139"></path><path d="M1083 262L988 186L969 281Z" fill="#58744b" stroke="#58744b"></path><path d="M650 286L552 357L659 343Z" fill="#33402f" stroke="#33402f"></path><path d="M1333 659L1318 554L1238 622Z" fill="#3b4c36" stroke="#3b4c36"></path><path d="M1238 622L1318 554L1215 559Z" fill="#4b6242" stroke="#4b6242"></path><path d="M988 186L876 168L969 281Z" fill="#4b6242" stroke="#4b6242"></path><path d="M672 932L773 1002L798 896Z" fill="#374632" stroke="#374632"></path><path d="M958 1080L1023 1006L949 973Z" fill="#546e48" stroke="#546e48"></path><path d="M865 1080L949 973L867 972Z" fill="#3b4c36" stroke="#3b4c36"></path><path d="M949 973L1023 1006L980 914Z" fill="#33402f" stroke="#33402f"></path><path d="M417 644L459 609L387 546Z" fill="#3f5139" stroke="#3f5139"></path><path d="M495 516L459 609L582 561Z" fill="#546e48" stroke="#546e48"></path><path d="M1318 554L1319 462L1215 559Z" fill="#33402f" stroke="#33402f"></path><path d="M1260 252L1170 195L1160 286Z" fill="#2f3b2c" stroke="#2f3b2c"></path><path d="M564 788L576 890L671 793Z" fill="#546e48" stroke="#546e48"></path><path d="M672 932L671 968L773 1002Z" fill="#546e48" stroke="#546e48"></path><path d="M467 780L576 890L564 788Z" fill="#3f5139" stroke="#3f5139"></path><path d="M1265 843L1228 719L1159 804Z" fill="#475d3f" stroke="#475d3f"></path><path d="M1228 719L1333 659L1238 622Z" fill="#58744b" stroke="#58744b"></path><path d="M1318 554L1407 539L1319 462Z" fill="#475d3f" stroke="#475d3f"></path><path d="M1265 843L1159 804L1123 874Z" fill="#58744b" stroke="#58744b"></path><path d="M576 890L671 968L672 932Z" fill="#3f5139" stroke="#3f5139"></path><path d="M1265 913L1265 843L1123 874Z" fill="#33402f" stroke="#33402f"></path><path d="M737 158L667 209L760 301Z" fill="#33402f" stroke="#33402f"></path><path d="M650 286L573 246L552 357Z" fill="#475d3f" stroke="#475d3f"></path><path d="M1265 843L1330 732L1228 719Z" fill="#475d3f" stroke="#475d3f"></path><path d="M876 168L737 158L845 280Z" fill="#4f6845" stroke="#4f6845"></path><path d="M459 609L446 714L607 692Z" fill="#4b6242" stroke="#4b6242"></path><path d="M1170 195L1051 146L1083 262Z" fill="#58744b" stroke="#58744b"></path><path d="M954 120L865 118L876 168Z" fill="#58744b" stroke="#58744b"></path><path d="M876 168L865 118L737 158Z" fill="#3f5139" stroke="#3f5139"></path><path d="M1170 195L1083 262L1160 286Z" fill="#43573c" stroke="#43573c"></path><path d="M446 714L467 780L564 788Z" fill="#4f6845" stroke="#4f6845"></path><path d="M954 120L876 168L988 186Z" fill="#3b4c36" stroke="#3b4c36"></path><path d="M1051 146L954 120L988 186Z" fill="#374632" stroke="#374632"></path><path d="M595 193L573 246L667 209Z" fill="#43573c" stroke="#43573c"></path><path d="M667 209L573 246L650 286Z" fill="#4b6242" stroke="#4b6242"></path><path d="M552 357L446 354L505 467Z" fill="#43573c" stroke="#43573c"></path><path d="M387 546L459 609L495 516Z" fill="#374632" stroke="#374632"></path><path d="M1023 1006L1142 1002L1073 885Z" fill="#4f6845" stroke="#4f6845"></path><path d="M1260 252L1160 286L1225 371Z" fill="#3f5139" stroke="#3f5139"></path><path d="M459 609L417 644L446 714Z" fill="#475d3f" stroke="#475d3f"></path><path d="M446 714L394 836L467 780Z" fill="#33402f" stroke="#33402f"></path><path d="M387 546L495 516L350 467Z" fill="#4f6845" stroke="#4f6845"></path><path d="M1142 1002L1265 913L1123 874Z" fill="#4f6845" stroke="#4f6845"></path><path d="M1265 843L1369 808L1330 732Z" fill="#4b6242" stroke="#4b6242"></path><path d="M745 1080L865 1080L773 1002Z" fill="#4f6845" stroke="#4f6845"></path><path d="M773 1002L865 1080L867 972Z" fill="#4f6845" stroke="#4f6845"></path><path d="M1023 1006L1035 1080L1142 1002Z" fill="#546e48" stroke="#546e48"></path><path d="M865 1080L958 1080L949 973Z" fill="#546e48" stroke="#546e48"></path><path d="M1341 335L1260 252L1225 371Z" fill="#4f6845" stroke="#4f6845"></path><path d="M573 246L492 300L552 357Z" fill="#475d3f" stroke="#475d3f"></path><path d="M665 118L595 193L667 209Z" fill="#4f6845" stroke="#4f6845"></path><path d="M489 146L401 254L492 300Z" fill="#4b6242" stroke="#4b6242"></path><path d="M665 118L667 209L737 158Z" fill="#475d3f" stroke="#475d3f"></path><path d="M958 1080L1035 1080L1023 1006Z" fill="#3b4c36" stroke="#3b4c36"></path><path d="M1281 998L1322 915L1265 913Z" fill="#4f6845" stroke="#4f6845"></path><path d="M492 300L446 354L552 357Z" fill="#4f6845" stroke="#4f6845"></path><path d="M1319 462L1341 335L1225 371Z" fill="#3b4c36" stroke="#3b4c36"></path><path d="M1431 422L1341 335L1319 462Z" fill="#3b4c36" stroke="#3b4c36"></path><path d="M1410 646L1318 554L1333 659Z" fill="#3b4c36" stroke="#3b4c36"></path><path d="M1410 646L1407 539L1318 554Z" fill="#33402f" stroke="#33402f"></path><path d="M1410 646L1333 659L1330 732Z" fill="#58744b" stroke="#58744b"></path><path d="M687 1080L745 1080L773 1002Z" fill="#58744b" stroke="#58744b"></path><path d="M687 1080L773 1002L671 968Z" fill="#2f3b2c" stroke="#2f3b2c"></path><path d="M687 1080L671 968L605 1080Z" fill="#3b4c36" stroke="#3b4c36"></path><path d="M350 467L495 516L505 467Z" fill="#33402f" stroke="#33402f"></path><path d="M1472 685L1410 646L1330 732Z" fill="#2f3b2c" stroke="#2f3b2c"></path><path d="M1322 915L1369 808L1265 843Z" fill="#546e48" stroke="#546e48"></path><path d="M1369 192L1217 179L1260 252Z" fill="#3f5139" stroke="#3f5139"></path><path d="M1260 252L1217 179L1170 195Z" fill="#475d3f" stroke="#475d3f"></path><path d="M1134 68L1036 73L1051 146Z" fill="#546e48" stroke="#546e48"></path><path d="M1051 146L1036 73L954 120Z" fill="#3b4c36" stroke="#3b4c36"></path><path d="M738 65L665 118L737 158Z" fill="#58744b" stroke="#58744b"></path><path d="M401 254L446 354L492 300Z" fill="#4b6242" stroke="#4b6242"></path><path d="M282 639L377 692L417 644Z" fill="#546e48" stroke="#546e48"></path><path d="M417 644L377 692L446 714Z" fill="#58744b" stroke="#58744b"></path><path d="M548 1012L671 968L576 890Z" fill="#4f6845" stroke="#4f6845"></path><path d="M469 927L576 890L467 780Z" fill="#4f6845" stroke="#4f6845"></path><path d="M1281 998L1265 913L1142 1002Z" fill="#3f5139" stroke="#3f5139"></path><path d="M1265 913L1322 915L1265 843Z" fill="#2f3b2c" stroke="#2f3b2c"></path><path d="M1134 68L1051 146L1170 195Z" fill="#3f5139" stroke="#3f5139"></path><path d="M960 0L847 0L865 118Z" fill="#4b6242" stroke="#4b6242"></path><path d="M865 118L738 65L737 158Z" fill="#374632" stroke="#374632"></path><path d="M401 254L400 385L446 354Z" fill="#374632" stroke="#374632"></path><path d="M446 354L400 385L505 467Z" fill="#3f5139" stroke="#3f5139"></path><path d="M492 300L573 246L489 146Z" fill="#4b6242" stroke="#4b6242"></path><path d="M394 836L469 927L467 780Z" fill="#3b4c36" stroke="#3b4c36"></path><path d="M469 927L548 1012L576 890Z" fill="#3f5139" stroke="#3f5139"></path><path d="M802 0L738 65L865 118Z" fill="#3b4c36" stroke="#3b4c36"></path><path d="M1522 510L1431 422L1407 539Z" fill="#2f3b2c" stroke="#2f3b2c"></path><path d="M1407 539L1431 422L1319 462Z" fill="#374632" stroke="#374632"></path><path d="M1341 335L1375 297L1260 252Z" fill="#3b4c36" stroke="#3b4c36"></path><path d="M1171 1080L1281 998L1142 1002Z" fill="#475d3f" stroke="#475d3f"></path><path d="M1453 378L1375 297L1341 335Z" fill="#33402f" stroke="#33402f"></path><path d="M1035 1080L1171 1080L1142 1002Z" fill="#58744b" stroke="#58744b"></path><path d="M377 692L394 836L446 714Z" fill="#4b6242" stroke="#4b6242"></path><path d="M400 385L350 467L505 467Z" fill="#58744b" stroke="#58744b"></path><path d="M387 546L282 639L417 644Z" fill="#43573c" stroke="#43573c"></path><path d="M310 787L382 890L394 836Z" fill="#3b4c36" stroke="#3b4c36"></path><path d="M488 1080L605 1080L548 1012Z" fill="#2f3b2c" stroke="#2f3b2c"></path><path d="M548 1012L605 1080L671 968Z" fill="#33402f" stroke="#33402f"></path><path d="M1217 179L1134 68L1170 195Z" fill="#546e48" stroke="#546e48"></path><path d="M960 0L865 118L954 120Z" fill="#43573c" stroke="#43573c"></path><path d="M1225 61L1134 68L1217 179Z" fill="#33402f" stroke="#33402f"></path><path d="M1473 798L1472 685L1369 808Z" fill="#43573c" stroke="#43573c"></path><path d="M1369 808L1472 685L1330 732Z" fill="#3b4c36" stroke="#3b4c36"></path><path d="M1543 645L1522 510L1407 539Z" fill="#4b6242" stroke="#4b6242"></path><path d="M1422 872L1369 808L1322 915Z" fill="#546e48" stroke="#546e48"></path><path d="M651 0L586 100L665 118Z" fill="#3f5139" stroke="#3f5139"></path><path d="M665 118L586 100L595 193Z" fill="#3b4c36" stroke="#3b4c36"></path><path d="M469 927L491 1015L548 1012Z" fill="#43573c" stroke="#43573c"></path><path d="M375 970L491 1015L469 927Z" fill="#58744b" stroke="#58744b"></path><path d="M960 0L954 120L1036 73Z" fill="#43573c" stroke="#43573c"></path><path d="M738 65L651 0L665 118Z" fill="#3b4c36" stroke="#3b4c36"></path><path d="M1066 0L960 0L1036 73Z" fill="#374632" stroke="#374632"></path><path d="M1520 448L1453 378L1431 422Z" fill="#4b6242" stroke="#4b6242"></path><path d="M1431 422L1453 378L1341 335Z" fill="#58744b" stroke="#58744b"></path><path d="M1422 982L1422 872L1322 915Z" fill="#43573c" stroke="#43573c"></path><path d="M310 787L394 836L377 692Z" fill="#3b4c36" stroke="#3b4c36"></path><path d="M394 836L382 890L469 927Z" fill="#43573c" stroke="#43573c"></path><path d="M847 0L802 0L865 118Z" fill="#4b6242" stroke="#4b6242"></path><path d="M400 385L320 432L350 467Z" fill="#2f3b2c" stroke="#2f3b2c"></path><path d="M256 564L282 639L387 546Z" fill="#3f5139" stroke="#3f5139"></path><path d="M283 377L320 432L400 385Z" fill="#33402f" stroke="#33402f"></path><path d="M489 146L573 246L595 193Z" fill="#3b4c36" stroke="#3b4c36"></path><path d="M586 100L489 146L595 193Z" fill="#58744b" stroke="#58744b"></path><path d="M1171 1080L1263 1080L1281 998Z" fill="#33402f" stroke="#33402f"></path><path d="M1281 998L1345 1011L1322 915Z" fill="#374632" stroke="#374632"></path><path d="M1422 872L1473 798L1369 808Z" fill="#374632" stroke="#374632"></path><path d="M1321 1080L1345 1011L1281 998Z" fill="#546e48" stroke="#546e48"></path><path d="M1556 914L1563 800L1473 798Z" fill="#4f6845" stroke="#4f6845"></path><path d="M1149 0L1066 0L1134 68Z" fill="#546e48" stroke="#546e48"></path><path d="M1134 68L1066 0L1036 73Z" fill="#3b4c36" stroke="#3b4c36"></path><path d="M1410 211L1369 192L1375 297Z" fill="#475d3f" stroke="#475d3f"></path><path d="M1375 297L1369 192L1260 252Z" fill="#3b4c36" stroke="#3b4c36"></path><path d="M256 564L387 546L350 467Z" fill="#2f3b2c" stroke="#2f3b2c"></path><path d="M267 695L310 787L377 692Z" fill="#475d3f" stroke="#475d3f"></path><path d="M1453 378L1423 256L1375 297Z" fill="#374632" stroke="#374632"></path><path d="M1338 111L1225 61L1217 179Z" fill="#546e48" stroke="#546e48"></path><path d="M1543 645L1410 646L1472 685Z" fill="#3b4c36" stroke="#3b4c36"></path><path d="M1543 645L1407 539L1410 646Z" fill="#374632" stroke="#374632"></path><path d="M1453 378L1552 277L1423 256Z" fill="#3f5139" stroke="#3f5139"></path><path d="M1423 256L1410 211L1375 297Z" fill="#33402f" stroke="#33402f"></path><path d="M1369 192L1338 111L1217 179Z" fill="#4b6242" stroke="#4b6242"></path><path d="M1554 169L1410 211L1423 256Z" fill="#3f5139" stroke="#3f5139"></path><path d="M1522 510L1520 448L1431 422Z" fill="#58744b" stroke="#58744b"></path><path d="M356 1080L488 1080L491 1015Z" fill="#58744b" stroke="#58744b"></path><path d="M491 1015L488 1080L548 1012Z" fill="#546e48" stroke="#546e48"></path><path d="M375 970L469 927L382 890Z" fill="#4b6242" stroke="#4b6242"></path><path d="M175 634L267 695L282 639Z" fill="#3f5139" stroke="#3f5139"></path><path d="M282 639L267 695L377 692Z" fill="#546e48" stroke="#546e48"></path><path d="M802 0L651 0L738 65Z" fill="#43573c" stroke="#43573c"></path><path d="M586 100L501 78L489 146Z" fill="#3f5139" stroke="#3f5139"></path><path d="M1225 61L1149 0L1134 68Z" fill="#4b6242" stroke="#4b6242"></path><path d="M220 539L256 564L320 432Z" fill="#3b4c36" stroke="#3b4c36"></path><path d="M320 432L256 564L350 467Z" fill="#4f6845" stroke="#4f6845"></path><path d="M296 919L382 890L310 787Z" fill="#3f5139" stroke="#3f5139"></path><path d="M296 919L375 970L382 890Z" fill="#374632" stroke="#374632"></path><path d="M1263 1080L1321 1080L1281 998Z" fill="#374632" stroke="#374632"></path><path d="M1345 1011L1422 982L1322 915Z" fill="#475d3f" stroke="#475d3f"></path><path d="M1557 710L1543 645L1472 685Z" fill="#33402f" stroke="#33402f"></path><path d="M1522 510L1602 522L1520 448Z" fill="#58744b" stroke="#58744b"></path><path d="M582 0L501 78L586 100Z" fill="#475d3f" stroke="#475d3f"></path><path d="M489 146L377 147L401 254Z" fill="#58744b" stroke="#58744b"></path><path d="M1439 66L1338 111L1369 192Z" fill="#33402f" stroke="#33402f"></path><path d="M1225 61L1222 0L1149 0Z" fill="#374632" stroke="#374632"></path><path d="M277 238L283 377L401 254Z" fill="#4b6242" stroke="#4b6242"></path><path d="M401 254L283 377L400 385Z" fill="#4b6242" stroke="#4b6242"></path><path d="M1429 1080L1422 982L1345 1011Z" fill="#43573c" stroke="#43573c"></path><path d="M1473 798L1557 710L1472 685Z" fill="#475d3f" stroke="#475d3f"></path><path d="M1563 800L1557 710L1473 798Z" fill="#374632" stroke="#374632"></path><path d="M1543 645L1602 522L1522 510Z" fill="#374632" stroke="#374632"></path><path d="M651 0L582 0L586 100Z" fill="#58744b" stroke="#58744b"></path><path d="M1314 0L1222 0L1225 61Z" fill="#58744b" stroke="#58744b"></path><path d="M195 474L220 539L320 432Z" fill="#33402f" stroke="#33402f"></path><path d="M256 564L175 634L282 639Z" fill="#475d3f" stroke="#475d3f"></path><path d="M374 91L377 147L489 146Z" fill="#2f3b2c" stroke="#2f3b2c"></path><path d="M374 91L489 146L501 78Z" fill="#374632" stroke="#374632"></path><path d="M216 843L296 919L310 787Z" fill="#58744b" stroke="#58744b"></path><path d="M375 970L356 1080L491 1015Z" fill="#3f5139" stroke="#3f5139"></path><path d="M208 752L310 787L267 695Z" fill="#33402f" stroke="#33402f"></path><path d="M1556 914L1473 798L1422 872Z" fill="#2f3b2c" stroke="#2f3b2c"></path><path d="M1605 655L1543 645L1557 710Z" fill="#475d3f" stroke="#475d3f"></path><path d="M1605 655L1602 522L1543 645Z" fill="#4f6845" stroke="#4f6845"></path><path d="M1520 448L1569 327L1453 378Z" fill="#3b4c36" stroke="#3b4c36"></path><path d="M175 634L208 752L267 695Z" fill="#546e48" stroke="#546e48"></path><path d="M1622 701L1605 655L1557 710Z" fill="#3f5139" stroke="#3f5139"></path><path d="M283 377L195 474L320 432Z" fill="#43573c" stroke="#43573c"></path><path d="M220 539L175 634L256 564Z" fill="#58744b" stroke="#58744b"></path><path d="M224 345L195 474L283 377Z" fill="#2f3b2c" stroke="#2f3b2c"></path><path d="M377 147L277 238L401 254Z" fill="#4f6845" stroke="#4f6845"></path><path d="M277 238L224 345L283 377Z" fill="#43573c" stroke="#43573c"></path><path d="M206 994L311 1005L296 919Z" fill="#4b6242" stroke="#4b6242"></path><path d="M296 919L311 1005L375 970Z" fill="#4b6242" stroke="#4b6242"></path><path d="M1635 355L1569 327L1520 448Z" fill="#3f5139" stroke="#3f5139"></path><path d="M1439 66L1314 0L1338 111Z" fill="#4f6845" stroke="#4f6845"></path><path d="M1338 111L1314 0L1225 61Z" fill="#4f6845" stroke="#4f6845"></path><path d="M1321 1080L1429 1080L1345 1011Z" fill="#374632" stroke="#374632"></path><path d="M1517 986L1556 914L1422 872Z" fill="#4b6242" stroke="#4b6242"></path><path d="M1439 66L1369 192L1410 211Z" fill="#546e48" stroke="#546e48"></path><path d="M464 0L374 91L501 78Z" fill="#2f3b2c" stroke="#2f3b2c"></path><path d="M377 147L282 148L277 238Z" fill="#3f5139" stroke="#3f5139"></path><path d="M118 529L175 634L220 539Z" fill="#475d3f" stroke="#475d3f"></path><path d="M1569 327L1552 277L1453 378Z" fill="#546e48" stroke="#546e48"></path><path d="M208 752L216 843L310 787Z" fill="#374632" stroke="#374632"></path><path d="M109 833L216 843L208 752Z" fill="#4f6845" stroke="#4f6845"></path><path d="M311 1005L356 1080L375 970Z" fill="#475d3f" stroke="#475d3f"></path><path d="M1660 820L1622 701L1563 800Z" fill="#374632" stroke="#374632"></path><path d="M1563 800L1622 701L1557 710Z" fill="#4b6242" stroke="#4b6242"></path><path d="M1705 432L1633 458L1758 508Z" fill="#58744b" stroke="#58744b"></path><path d="M1517 986L1422 872L1422 982Z" fill="#3f5139" stroke="#3f5139"></path><path d="M582 0L464 0L501 78Z" fill="#546e48" stroke="#546e48"></path><path d="M1429 1080L1517 986L1422 982Z" fill="#374632" stroke="#374632"></path><path d="M1602 522L1633 458L1520 448Z" fill="#58744b" stroke="#58744b"></path><path d="M1569 327L1660 265L1552 277Z" fill="#475d3f" stroke="#475d3f"></path><path d="M1633 458L1602 522L1758 508Z" fill="#3f5139" stroke="#3f5139"></path><path d="M1523 109L1439 66L1410 211Z" fill="#3f5139" stroke="#3f5139"></path><path d="M202 1080L322 1080L311 1005Z" fill="#43573c" stroke="#43573c"></path><path d="M311 1005L322 1080L356 1080Z" fill="#4b6242" stroke="#4b6242"></path><path d="M374 91L282 148L377 147Z" fill="#58744b" stroke="#58744b"></path><path d="M277 238L184 250L224 345Z" fill="#374632" stroke="#374632"></path><path d="M254 82L282 148L374 91Z" fill="#58744b" stroke="#58744b"></path><path d="M1556 914L1611 865L1563 800Z" fill="#33402f" stroke="#33402f"></path><path d="M1693 931L1611 865L1556 914Z" fill="#374632" stroke="#374632"></path><path d="M91 888L212 927L216 843Z" fill="#33402f" stroke="#33402f"></path><path d="M216 843L212 927L296 919Z" fill="#43573c" stroke="#43573c"></path><path d="M1633 458L1635 355L1520 448Z" fill="#4b6242" stroke="#4b6242"></path><path d="M1552 277L1554 169L1423 256Z" fill="#4b6242" stroke="#4b6242"></path><path d="M1660 186L1554 169L1552 277Z" fill="#2f3b2c" stroke="#2f3b2c"></path><path d="M108 467L118 529L195 474Z" fill="#43573c" stroke="#43573c"></path><path d="M195 474L118 529L220 539Z" fill="#4f6845" stroke="#4f6845"></path><path d="M175 634L65 743L208 752Z" fill="#4f6845" stroke="#4f6845"></path><path d="M108 467L195 474L224 345Z" fill="#3f5139" stroke="#3f5139"></path><path d="M464 0L377 0L374 91Z" fill="#58744b" stroke="#58744b"></path><path d="M1554 169L1523 109L1410 211Z" fill="#3b4c36" stroke="#3b4c36"></path><path d="M1439 66L1463 0L1314 0Z" fill="#2f3b2c" stroke="#2f3b2c"></path><path d="M224 165L277 238L282 148Z" fill="#43573c" stroke="#43573c"></path><path d="M224 165L184 250L277 238Z" fill="#475d3f" stroke="#475d3f"></path><path d="M118 529L107 608L175 634Z" fill="#3b4c36" stroke="#3b4c36"></path><path d="M1693 931L1660 820L1611 865Z" fill="#3b4c36" stroke="#3b4c36"></path><path d="M1611 865L1660 820L1563 800Z" fill="#546e48" stroke="#546e48"></path><path d="M1747 643L1602 522L1605 655Z" fill="#3f5139" stroke="#3f5139"></path><path d="M1633 458L1705 432L1635 355Z" fill="#2f3b2c" stroke="#2f3b2c"></path><path d="M254 82L224 165L282 148Z" fill="#33402f" stroke="#33402f"></path><path d="M1429 1080L1530 1080L1517 986Z" fill="#43573c" stroke="#43573c"></path><path d="M1517 986L1625 1019L1556 914Z" fill="#43573c" stroke="#43573c"></path><path d="M78 334L108 467L224 345Z" fill="#374632" stroke="#374632"></path><path d="M118 529L0 573L107 608Z" fill="#58744b" stroke="#58744b"></path><path d="M91 888L206 994L212 927Z" fill="#475d3f" stroke="#475d3f"></path><path d="M212 927L206 994L296 919Z" fill="#2f3b2c" stroke="#2f3b2c"></path><path d="M1511 0L1463 0L1439 66Z" fill="#33402f" stroke="#33402f"></path><path d="M115 146L90 304L184 250Z" fill="#546e48" stroke="#546e48"></path><path d="M289 0L254 82L374 91Z" fill="#546e48" stroke="#546e48"></path><path d="M1721 701L1605 655L1622 701Z" fill="#33402f" stroke="#33402f"></path><path d="M1635 355L1660 265L1569 327Z" fill="#3f5139" stroke="#3f5139"></path><path d="M1613 0L1511 0L1523 109Z" fill="#475d3f" stroke="#475d3f"></path><path d="M1523 109L1511 0L1439 66Z" fill="#546e48" stroke="#546e48"></path><path d="M65 743L109 833L208 752Z" fill="#374632" stroke="#374632"></path><path d="M1723 300L1660 265L1635 355Z" fill="#43573c" stroke="#43573c"></path><path d="M1730 794L1721 701L1660 820Z" fill="#374632" stroke="#374632"></path><path d="M1660 820L1721 701L1622 701Z" fill="#546e48" stroke="#546e48"></path><path d="M1530 1080L1625 1019L1517 986Z" fill="#546e48" stroke="#546e48"></path><path d="M1798 430L1714 365L1705 432Z" fill="#475d3f" stroke="#475d3f"></path><path d="M1705 432L1714 365L1635 355Z" fill="#4b6242" stroke="#4b6242"></path><path d="M0 637L65 743L107 608Z" fill="#33402f" stroke="#33402f"></path><path d="M107 608L65 743L175 634Z" fill="#2f3b2c" stroke="#2f3b2c"></path><path d="M377 0L289 0L374 91Z" fill="#3f5139" stroke="#3f5139"></path><path d="M1811 664L1747 643L1809 702Z" fill="#58744b" stroke="#58744b"></path><path d="M1721 701L1747 643L1605 655Z" fill="#475d3f" stroke="#475d3f"></path><path d="M1651 81L1523 109L1554 169Z" fill="#3b4c36" stroke="#3b4c36"></path><path d="M89 1080L202 1080L206 994Z" fill="#33402f" stroke="#33402f"></path><path d="M206 994L202 1080L311 1005Z" fill="#58744b" stroke="#58744b"></path><path d="M91 888L216 843L109 833Z" fill="#3b4c36" stroke="#3b4c36"></path><path d="M1693 931L1730 794L1660 820Z" fill="#3b4c36" stroke="#3b4c36"></path><path d="M180 77L224 165L254 82Z" fill="#3b4c36" stroke="#3b4c36"></path><path d="M115 146L184 250L224 165Z" fill="#475d3f" stroke="#475d3f"></path><path d="M184 250L90 304L224 345Z" fill="#3f5139" stroke="#3f5139"></path><path d="M0 477L0 573L118 529Z" fill="#4b6242" stroke="#4b6242"></path><path d="M90 304L78 334L224 345Z" fill="#43573c" stroke="#43573c"></path><path d="M0 879L91 888L109 833Z" fill="#4b6242" stroke="#4b6242"></path><path d="M1736 153L1660 186L1660 265Z" fill="#4b6242" stroke="#4b6242"></path><path d="M1660 265L1660 186L1552 277Z" fill="#4b6242" stroke="#4b6242"></path><path d="M1747 643L1758 508L1602 522Z" fill="#2f3b2c" stroke="#2f3b2c"></path><path d="M1714 365L1723 300L1635 355Z" fill="#4b6242" stroke="#4b6242"></path><path d="M1625 1019L1693 931L1556 914Z" fill="#43573c" stroke="#43573c"></path><path d="M1812 387L1723 300L1714 365Z" fill="#475d3f" stroke="#475d3f"></path><path d="M157 0L180 77L254 82Z" fill="#4b6242" stroke="#4b6242"></path><path d="M0 267L0 359L78 334Z" fill="#43573c" stroke="#43573c"></path><path d="M0 477L118 529L108 467Z" fill="#374632" stroke="#374632"></path><path d="M65 743L0 797L109 833Z" fill="#4f6845" stroke="#4f6845"></path><path d="M0 573L0 637L107 608Z" fill="#3f5139" stroke="#3f5139"></path><path d="M180 77L115 146L224 165Z" fill="#3b4c36" stroke="#3b4c36"></path><path d="M0 359L0 477L108 467Z" fill="#374632" stroke="#374632"></path><path d="M0 359L108 467L78 334Z" fill="#475d3f" stroke="#475d3f"></path><path d="M1530 1080L1663 1080L1625 1019Z" fill="#4b6242" stroke="#4b6242"></path><path d="M1625 1019L1746 955L1693 931Z" fill="#4f6845" stroke="#4f6845"></path><path d="M1809 702L1721 701L1730 794Z" fill="#4f6845" stroke="#4f6845"></path><path d="M1660 186L1651 81L1554 169Z" fill="#4b6242" stroke="#4b6242"></path><path d="M1736 153L1651 81L1660 186Z" fill="#3b4c36" stroke="#3b4c36"></path><path d="M0 637L0 752L65 743Z" fill="#2f3b2c" stroke="#2f3b2c"></path><path d="M91 888L66 997L206 994Z" fill="#58744b" stroke="#58744b"></path><path d="M1758 508L1798 430L1705 432Z" fill="#374632" stroke="#374632"></path><path d="M1723 300L1736 153L1660 265Z" fill="#33402f" stroke="#33402f"></path><path d="M1851 525L1798 430L1758 508Z" fill="#2f3b2c" stroke="#2f3b2c"></path><path d="M1851 525L1758 508L1747 643Z" fill="#546e48" stroke="#546e48"></path><path d="M1809 702L1730 794L1789 834Z" fill="#4b6242" stroke="#4b6242"></path><path d="M1809 702L1747 643L1721 701Z" fill="#4b6242" stroke="#4b6242"></path><path d="M1789 834L1730 794L1693 931Z" fill="#2f3b2c" stroke="#2f3b2c"></path><path d="M0 752L0 797L65 743Z" fill="#3f5139" stroke="#3f5139"></path><path d="M1722 1080L1746 955L1625 1019Z" fill="#33402f" stroke="#33402f"></path><path d="M1746 955L1789 834L1693 931Z" fill="#43573c" stroke="#43573c"></path><path d="M0 977L66 997L91 888Z" fill="#374632" stroke="#374632"></path><path d="M1651 81L1613 0L1523 109Z" fill="#3b4c36" stroke="#3b4c36"></path><path d="M0 267L78 334L90 304Z" fill="#2f3b2c" stroke="#2f3b2c"></path><path d="M1920 464L1812 387L1798 430Z" fill="#4b6242" stroke="#4b6242"></path><path d="M1798 430L1812 387L1714 365Z" fill="#33402f" stroke="#33402f"></path><path d="M1651 81L1702 0L1613 0Z" fill="#374632" stroke="#374632"></path><path d="M0 797L0 879L109 833Z" fill="#2f3b2c" stroke="#2f3b2c"></path><path d="M1799 204L1736 153L1723 300Z" fill="#33402f" stroke="#33402f"></path><path d="M0 1080L89 1080L66 997Z" fill="#475d3f" stroke="#475d3f"></path><path d="M66 997L89 1080L206 994Z" fill="#58744b" stroke="#58744b"></path><path d="M180 77L79 112L115 146Z" fill="#43573c" stroke="#43573c"></path><path d="M115 146L0 267L90 304Z" fill="#374632" stroke="#374632"></path><path d="M289 0L157 0L254 82Z" fill="#374632" stroke="#374632"></path><path d="M157 0L79 112L180 77Z" fill="#58744b" stroke="#58744b"></path><path d="M1920 573L1851 525L1811 664Z" fill="#33402f" stroke="#33402f"></path><path d="M1811 664L1851 525L1747 643Z" fill="#475d3f" stroke="#475d3f"></path><path d="M1920 573L1811 664L1920 642Z" fill="#4b6242" stroke="#4b6242"></path><path d="M0 168L0 267L115 146Z" fill="#475d3f" stroke="#475d3f"></path><path d="M1663 1080L1722 1080L1625 1019Z" fill="#58744b" stroke="#58744b"></path><path d="M1746 955L1829 933L1789 834Z" fill="#475d3f" stroke="#475d3f"></path><path d="M1796 0L1714 78L1855 58Z" fill="#33402f" stroke="#33402f"></path><path d="M1736 153L1714 78L1651 81Z" fill="#4b6242" stroke="#4b6242"></path><path d="M0 879L0 977L91 888Z" fill="#58744b" stroke="#58744b"></path><path d="M1826 265L1723 300L1812 387Z" fill="#43573c" stroke="#43573c"></path><path d="M1826 265L1799 204L1723 300Z" fill="#43573c" stroke="#43573c"></path><path d="M1920 332L1826 265L1812 387Z" fill="#3b4c36" stroke="#3b4c36"></path><path d="M1806 997L1829 933L1746 955Z" fill="#3f5139" stroke="#3f5139"></path><path d="M1920 725L1811 664L1809 702Z" fill="#33402f" stroke="#33402f"></path><path d="M0 74L0 168L79 112Z" fill="#546e48" stroke="#546e48"></path><path d="M79 112L0 168L115 146Z" fill="#58744b" stroke="#58744b"></path><path d="M1722 1080L1806 997L1746 955Z" fill="#58744b" stroke="#58744b"></path><path d="M1796 0L1702 0L1714 78Z" fill="#374632" stroke="#374632"></path><path d="M1714 78L1702 0L1651 81Z" fill="#58744b" stroke="#58744b"></path><path d="M1920 642L1811 664L1920 725Z" fill="#374632" stroke="#374632"></path><path d="M1851 525L1920 464L1798 430Z" fill="#33402f" stroke="#33402f"></path><path d="M1920 725L1809 702L1920 788Z" fill="#58744b" stroke="#58744b"></path><path d="M0 977L0 1080L66 997Z" fill="#475d3f" stroke="#475d3f"></path><path d="M157 0L61 0L79 112Z" fill="#43573c" stroke="#43573c"></path><path d="M1920 573L1920 464L1851 525Z" fill="#4b6242" stroke="#4b6242"></path><path d="M1826 265L1920 214L1799 204Z" fill="#3f5139" stroke="#3f5139"></path><path d="M1920 788L1789 834L1920 911Z" fill="#475d3f" stroke="#475d3f"></path><path d="M1920 788L1809 702L1789 834Z" fill="#4b6242" stroke="#4b6242"></path><path d="M61 0L0 74L79 112Z" fill="#4b6242" stroke="#4b6242"></path><path d="M1920 911L1789 834L1829 933Z" fill="#546e48" stroke="#546e48"></path><path d="M1920 464L1920 332L1812 387Z" fill="#2f3b2c" stroke="#2f3b2c"></path><path d="M1855 58L1714 78L1736 153Z" fill="#58744b" stroke="#58744b"></path><path d="M1722 1080L1834 1080L1806 997Z" fill="#3b4c36" stroke="#3b4c36"></path><path d="M1920 961L1920 911L1829 933Z" fill="#4f6845" stroke="#4f6845"></path><path d="M1920 332L1920 273L1826 265Z" fill="#43573c" stroke="#43573c"></path><path d="M1920 961L1829 933L1806 997Z" fill="#374632" stroke="#374632"></path><path d="M1855 58L1736 153L1799 204Z" fill="#43573c" stroke="#43573c"></path><path d="M61 0L0 0L0 74Z" fill="#3b4c36" stroke="#3b4c36"></path><path d="M1834 1080L1920 961L1806 997Z" fill="#4f6845" stroke="#4f6845"></path><path d="M1920 273L1920 214L1826 265Z" fill="#546e48" stroke="#546e48"></path><path d="M1920 114L1855 58L1799 204Z" fill="#2f3b2c" stroke="#2f3b2c"></path><path d="M1920 214L1920 114L1799 204Z" fill="#4b6242" stroke="#4b6242"></path><path d="M1855 58L1920 0L1796 0Z" fill="#2f3b2c" stroke="#2f3b2c"></path><path d="M1834 1080L1920 1080L1920 961Z" fill="#374632" stroke="#374632"></path><path d="M1920 114L1920 0L1855 58Z" fill="#3b4c36" stroke="#3b4c36"></path></g></svg>