<svg id="visual" viewBox="0 0 900 600" width="900" height="600" xmlns="http://www.w3.org/2000/svg" xmlns:xlink="http://www.w3.org/1999/xlink" version="1.1"><path d="M0 91L13.7 84C27.3 77 54.7 63 82 61C109.3 59 136.7 69 163.8 78C191 87 218 95 245.2 92C272.3 89 299.7 75 327 75C354.3 75 381.7 89 409 94C436.3 99 463.7 95 491 86C518.3 77 545.7 63 573 65C600.3 67 627.7 85 654.8 85C682 85 709 67 736.2 58C763.3 49 790.7 49 818 57C845.3 65 872.7 81 886.3 89L900 97L900 0L886.3 0C872.7 0 845.3 0 818 0C790.7 0 763.3 0 736.2 0C709 0 682 0 654.8 0C627.7 0 600.3 0 573 0C545.7 0 518.3 0 491 0C463.7 0 436.3 0 409 0C381.7 0 354.3 0 327 0C299.7 0 272.3 0 245.2 0C218 0 191 0 163.8 0C136.7 0 109.3 0 82 0C54.7 0 27.3 0 13.7 0L0 0Z" fill="#52604e"></path><path d="M0 211L13.7 198C27.3 185 54.7 159 82 159C109.3 159 136.7 185 163.8 196C191 207 218 203 245.2 199C272.3 195 299.7 191 327 192C354.3 193 381.7 199 409 201C436.3 203 463.7 201 491 190C518.3 179 545.7 159 573 162C600.3 165 627.7 191 654.8 200C682 209 709 201 736.2 200C763.3 199 790.7 205 818 198C845.3 191 872.7 171 886.3 161L900 151L900 95L886.3 87C872.7 79 845.3 63 818 55C790.7 47 763.3 47 736.2 56C709 65 682 83 654.8 83C627.7 83 600.3 65 573 63C545.7 61 518.3 75 491 84C463.7 93 436.3 97 409 92C381.7 87 354.3 73 327 73C299.7 73 272.3 87 245.2 90C218 93 191 85 163.8 76C136.7 67 109.3 57 82 59C54.7 61 27.3 75 13.7 82L0 89Z" fill="#404d3d"></path><path d="M0 367L13.7 355C27.3 343 54.7 319 82 322C109.3 325 136.7 355 163.8 358C191 361 218 337 245.2 342C272.3 347 299.7 381 327 386C354.3 391 381.7 367 409 366C436.3 365 463.7 387 491 378C518.3 369 545.7 329 573 319C600.3 309 627.7 329 654.8 334C682 339 709 329 736.2 341C763.3 353 790.7 387 818 387C845.3 387 872.7 353 886.3 336L900 319L900 149L886.3 159C872.7 169 845.3 189 818 196C790.7 203 763.3 197 736.2 198C709 199 682 207 654.8 198C627.7 189 600.3 163 573 160C545.7 157 518.3 177 491 188C463.7 199 436.3 201 409 199C381.7 197 354.3 191 327 190C299.7 189 272.3 193 245.2 197C218 201 191 205 163.8 194C136.7 183 109.3 157 82 157C54.7 157 27.3 183 13.7 196L0 209Z" fill="#2f3b2c"></path><path d="M0 535L13.7 527C27.3 519 54.7 503 82 504C109.3 505 136.7 523 163.8 535C191 547 218 553 245.2 552C272.3 551 299.7 543 327 541C354.3 539 381.7 543 409 546C436.3 549 463.7 551 491 548C518.3 545 545.7 537 573 529C600.3 521 627.7 513 654.8 515C682 517 709 529 736.2 535C763.3 541 790.7 541 818 533C845.3 525 872.7 509 886.3 501L900 493L900 317L886.3 334C872.7 351 845.3 385 818 385C790.7 385 763.3 351 736.2 339C709 327 682 337 654.8 332C627.7 327 600.3 307 573 317C545.7 327 518.3 367 491 376C463.7 385 436.3 363 409 364C381.7 365 354.3 389 327 384C299.7 379 272.3 345 245.2 340C218 335 191 359 163.8 356C136.7 353 109.3 323 82 320C54.7 317 27.3 341 13.7 353L0 365Z" fill="#293327"></path><path d="M0 601L13.7 601C27.3 601 54.7 601 82 601C109.3 601 136.7 601 163.8 601C191 601 218 601 245.2 601C272.3 601 299.7 601 327 601C354.3 601 381.7 601 409 601C436.3 601 463.7 601 491 601C518.3 601 545.7 601 573 601C600.3 601 627.7 601 654.8 601C682 601 709 601 736.2 601C763.3 601 790.7 601 818 601C845.3 601 872.7 601 886.3 601L900 601L900 491L886.3 499C872.7 507 845.3 523 818 531C790.7 539 763.3 539 736.2 533C709 527 682 515 654.8 513C627.7 511 600.3 519 573 527C545.7 535 518.3 543 491 546C463.7 549 436.3 547 409 544C381.7 541 354.3 537 327 539C299.7 541 272.3 549 245.2 550C218 551 191 545 163.8 533C136.7 521 109.3 503 82 502C54.7 501 27.3 517 13.7 525L0 533Z" fill="#242c22"></path></svg>