<svg id="visual" viewBox="0 0 1920 1080" width="1920" height="1080" xmlns="http://www.w3.org/2000/svg" xmlns:xlink="http://www.w3.org/1999/xlink" version="1.1"><path d="M0 152L175 152L175 185L349 185L349 239L524 239L524 185L698 185L698 185L873 185L873 174L1047 174L1047 77L1222 77L1222 77L1396 77L1396 217L1571 217L1571 185L1745 185L1745 174L1920 174L1920 109L1920 0L1920 0L1745 0L1745 0L1571 0L1571 0L1396 0L1396 0L1222 0L1222 0L1047 0L1047 0L873 0L873 0L698 0L698 0L524 0L524 0L349 0L349 0L175 0L175 0L0 0Z" fill="#2f3b2c"></path><path d="M0 509L175 509L175 433L349 433L349 530L524 530L524 530L698 530L698 595L873 595L873 465L1047 465L1047 541L1222 541L1222 282L1396 282L1396 498L1571 498L1571 325L1745 325L1745 422L1920 422L1920 357L1920 107L1920 172L1745 172L1745 183L1571 183L1571 215L1396 215L1396 75L1222 75L1222 75L1047 75L1047 172L873 172L873 183L698 183L698 183L524 183L524 237L349 237L349 183L175 183L175 150L0 150Z" fill="#394934"></path><path d="M0 638L175 638L175 519L349 519L349 617L524 617L524 714L698 714L698 671L873 671L873 606L1047 606L1047 617L1222 617L1222 411L1396 411L1396 563L1571 563L1571 411L1745 411L1745 530L1920 530L1920 541L1920 355L1920 420L1745 420L1745 323L1571 323L1571 496L1396 496L1396 280L1222 280L1222 539L1047 539L1047 463L873 463L873 593L698 593L698 528L524 528L524 528L349 528L349 431L175 431L175 507L0 507Z" fill="#43573c"></path><path d="M0 843L175 843L175 800L349 800L349 865L524 865L524 833L698 833L698 897L873 897L873 779L1047 779L1047 725L1222 725L1222 649L1396 649L1396 757L1571 757L1571 692L1745 692L1745 638L1920 638L1920 649L1920 539L1920 528L1745 528L1745 409L1571 409L1571 561L1396 561L1396 409L1222 409L1222 615L1047 615L1047 604L873 604L873 669L698 669L698 712L524 712L524 615L349 615L349 517L175 517L175 636L0 636Z" fill="#4d6544"></path><path d="M0 1081L175 1081L175 1081L349 1081L349 1081L524 1081L524 1081L698 1081L698 1081L873 1081L873 1081L1047 1081L1047 1081L1222 1081L1222 1081L1396 1081L1396 1081L1571 1081L1571 1081L1745 1081L1745 1081L1920 1081L1920 1081L1920 647L1920 636L1745 636L1745 690L1571 690L1571 755L1396 755L1396 647L1222 647L1222 723L1047 723L1047 777L873 777L873 895L698 895L698 831L524 831L524 863L349 863L349 798L175 798L175 841L0 841Z" fill="#58744b"></path></svg>