<?xml version="1.0" encoding="UTF-8"?>
<svg xmlns="http://www.w3.org/2000/svg" xmlns:xlink="http://www.w3.org/1999/xlink" width="188.524" height="119.504" viewBox="0 0 188.524 119.504">
  <defs>
    <linearGradient id="a" x1="0.145" y1="1.345" x2="0.808" y2="-0.232" gradientUnits="objectBoundingBox">
      <stop offset="0" stop-color="#00b1de"></stop>
      <stop offset="1" stop-color="#146bb0"></stop>
    </linearGradient>
  </defs>
  <g transform="translate(141.778 0)">
    <path d="M443.228,48.878h-3.383L424.81,13.1a23.383,23.383,0,1,0,33.283,6.732,4.526,4.526,0,0,0-.752.615c-1.5,1.606-3.246,4.545-5.194,8.85" transform="translate(-414.9 -8.618)" fill="#146bb0"></path>
    <path d="M480.473,31.53c.718-1.538,1.4-3.041,2.46-5.433h0l7.894-19.1A23.425,23.425,0,0,0,475.586.024l.034-.034h0c-5.57-.137-6.527,2.29-6.219,4.545v.1a4.6,4.6,0,0,0,.342,1.264v.034c.308.923.854,2.29,1.606,4.169" transform="translate(-450.744 0.016)" fill="#146bb0"></path>
  </g>
  <g transform="translate(1.059 112.738)">
    <path d="M4.364,330.1v6.6H3.1v-6.6Z" transform="translate(-3.1 -330.032)" fill="#146bb0"></path>
    <path d="M13.093,330.1l3.93,4.613V330.1h1.23v6.6H17.16l-3.93-4.682V336.7H12v-6.6Z" transform="translate(-8.959 -330.032)" fill="#146bb0"></path>
    <path d="M36.262,330.1l2.153,2.6,2.153-2.6H41.7v6.6H40.431v-4.613H40.4l-1.914,2.324h-.171L36.4,332.082h-.034V336.7H35.1v-6.6Z" transform="translate(-24.165 -330.032)" fill="#146bb0"></path>
    <path d="M62.356,329.9a4.069,4.069,0,0,1,1.845.41,3.007,3.007,0,0,1,1.3,1.23,3.424,3.424,0,0,1,.478,1.743,3.3,3.3,0,0,1-.478,1.709,3.463,3.463,0,0,1-1.3,1.23,3.731,3.731,0,0,1-1.879.444,3.688,3.688,0,0,1-1.845-.444,3.462,3.462,0,0,1-1.3-1.23,3.3,3.3,0,0,1-.478-1.709,3.394,3.394,0,0,1,.478-1.709,3.006,3.006,0,0,1,1.3-1.23A3.73,3.73,0,0,1,62.356,329.9Zm-2.324,3.383a2.185,2.185,0,0,0,.308,1.162,2.356,2.356,0,0,0,.82.82,2.292,2.292,0,0,0,1.2.273,2.24,2.24,0,0,0,1.674-.649,2.113,2.113,0,0,0,.649-1.64,2.4,2.4,0,0,0-.308-1.2,2.355,2.355,0,0,0-.82-.82,2.292,2.292,0,0,0-1.2-.273,2.681,2.681,0,0,0-1.2.273,2.355,2.355,0,0,0-.82.82A2.527,2.527,0,0,0,60.033,333.283Z" transform="translate(-39.701 -329.9)" fill="#146bb0"></path>
    <path d="M86.626,330.1a2.233,2.233,0,0,1,1.469.478,1.489,1.489,0,0,1,.581,1.162,1.2,1.2,0,0,1-.239.786,1.573,1.573,0,0,1-.683.547v.068a1.834,1.834,0,0,1,1.059.615,1.527,1.527,0,0,1,.376,1.093,1.96,1.96,0,0,1-.273.991,1.656,1.656,0,0,1-.786.649,3.064,3.064,0,0,1-1.162.205H84.2v-6.6Zm-.342,2.734a1.085,1.085,0,0,0,.786-.239.815.815,0,0,0,.308-.684.856.856,0,0,0-.273-.615,1.128,1.128,0,0,0-.718-.239h-.923V332.8h.82Zm.273,2.87a1.637,1.637,0,0,0,.991-.239.818.818,0,0,0,.342-.718.7.7,0,0,0-.342-.649,1.375,1.375,0,0,0-.888-.239h-1.2v1.879h1.094Z" transform="translate(-56.487 -330.032)" fill="#146bb0"></path>
    <path d="M104.064,330.1v6.6H102.8v-6.6Z" transform="translate(-68.731 -330.032)" fill="#146bb0"></path>
    <path d="M112.764,330.1v5.6h3.212v.991H111.5v-6.6Z" transform="translate(-74.458 -330.032)" fill="#146bb0"></path>
    <path d="M129.264,330.1v6.6H128v-6.6Z" transform="translate(-85.32 -330.032)" fill="#146bb0"></path>
    <path d="M138.666,330.1l2.9,6.6H140.2l-.683-1.606h-2.939l-.649,1.606H134.6l2.7-6.6Zm-1.674,4.032h2.119l-1.128-2.6Z" transform="translate(-89.664 -330.032)" fill="#146bb0"></path>
    <path d="M160.292,330.1a2.169,2.169,0,0,1,1.5.513,1.731,1.731,0,0,1,.581,1.333,1.96,1.96,0,0,1-.273.991,1.847,1.847,0,0,1-.854.649,1.461,1.461,0,0,1,.547.478,7.694,7.694,0,0,1,.615.991c.41.786.718,1.333.889,1.64h-1.435a7.016,7.016,0,0,1-.41-.683,14.674,14.674,0,0,0-.786-1.4,2.371,2.371,0,0,0-.478-.513,1,1,0,0,0-.547-.137h-.478v2.768H157.9v-6.6h2.392Zm-.308,2.836a1.139,1.139,0,0,0,.786-.239.833.833,0,0,0,.273-.684.9.9,0,0,0-.273-.683,1.376,1.376,0,0,0-.82-.239h-.786v1.845Z" transform="translate(-105.002 -330.032)" fill="#146bb0"></path>
    <path d="M178.264,330.1v6.6H177v-6.6Z" transform="translate(-117.576 -330.032)" fill="#146bb0"></path>
    <path d="M187.732,330.1l2.9,6.6H189.3l-.683-1.606h-2.939l-.649,1.606H183.7l2.7-6.6Zm-1.674,4.032h2.119l-1.128-2.6Z" transform="translate(-121.986 -330.032)" fill="#146bb0"></path>
    <path d="M213.938,330.034l1.606,2.187,1.606-2.187h1.5l-2.495,3.315V336.6h-1.264v-3.28L212.4,330h1.538Z" transform="translate(-140.879 -329.966)" fill="#146bb0"></path>
    <path d="M244.993,329.9a3.843,3.843,0,0,1,1.093.137,4.993,4.993,0,0,1,1.162.444v1.2a5.311,5.311,0,0,0-1.128-.513,3.851,3.851,0,0,0-1.093-.171,2.987,2.987,0,0,0-1.264.273,2.156,2.156,0,0,0-1.2,1.982,2.4,2.4,0,0,0,.308,1.2,2.292,2.292,0,0,0,.888.82,2.551,2.551,0,0,0,1.264.273,3.222,3.222,0,0,0,1.025-.171,8.62,8.62,0,0,0,1.23-.547v1.2a6,6,0,0,1-1.162.478,4.621,4.621,0,0,1-1.264.137,4.215,4.215,0,0,1-1.879-.41,3.136,3.136,0,0,1-1.3-1.2,3.3,3.3,0,0,1-.478-1.709,3.456,3.456,0,0,1,.478-1.777,3.324,3.324,0,0,1,1.333-1.23A5.023,5.023,0,0,1,244.993,329.9Z" transform="translate(-159.838 -329.9)" fill="#146bb0"></path>
    <path d="M265.956,329.9a4.07,4.07,0,0,1,1.845.41,3.007,3.007,0,0,1,1.3,1.23,3.424,3.424,0,0,1,.478,1.743,3.3,3.3,0,0,1-.478,1.709,3.463,3.463,0,0,1-1.3,1.23,3.731,3.731,0,0,1-1.879.444,3.688,3.688,0,0,1-1.845-.444,3.462,3.462,0,0,1-1.3-1.23,3.3,3.3,0,0,1-.478-1.709,3.394,3.394,0,0,1,.478-1.709,3.006,3.006,0,0,1,1.3-1.23A3.818,3.818,0,0,1,265.956,329.9Zm-2.324,3.383a2.186,2.186,0,0,0,.308,1.162,2.356,2.356,0,0,0,.82.82,2.293,2.293,0,0,0,1.2.273,2.24,2.24,0,0,0,1.674-.649,2.113,2.113,0,0,0,.649-1.64,2.4,2.4,0,0,0-.308-1.2,2.355,2.355,0,0,0-.82-.82,2.291,2.291,0,0,0-1.2-.273,2.681,2.681,0,0,0-1.2.273,2.355,2.355,0,0,0-.82.82A2.528,2.528,0,0,0,263.633,333.283Z" transform="translate(-173.727 -329.9)" fill="#146bb0"></path>
    <path d="M288.993,330.1l3.93,4.613V330.1h1.23v6.6H293.06l-3.93-4.682V336.7H287.9v-6.6Z" transform="translate(-190.579 -330.032)" fill="#146bb0"></path>
    <path d="M312.389,329.9a3.906,3.906,0,0,1,1.845.478v1.128a3.673,3.673,0,0,0-1.811-.615,1.528,1.528,0,0,0-.752.171.6.6,0,0,0-.273.513c0,.239.171.478.512.683a9.1,9.1,0,0,0,1.093.513,2.935,2.935,0,0,1,1.162.854,1.771,1.771,0,0,1,.342,1.128,1.674,1.674,0,0,1-.615,1.367,2.352,2.352,0,0,1-1.572.513,3.547,3.547,0,0,1-1.094-.137,4.486,4.486,0,0,1-1.025-.478v-1.264a3.273,3.273,0,0,0,1.982.889,1.3,1.3,0,0,0,.752-.205.586.586,0,0,0,.273-.547.87.87,0,0,0-.513-.752c-.273-.137-.649-.342-1.059-.547a3.17,3.17,0,0,1-1.162-.82,1.582,1.582,0,0,1-.376-1.094,1.653,1.653,0,0,1,.615-1.333A3.119,3.119,0,0,1,312.389,329.9Z" transform="translate(-205.193 -329.9)" fill="#146bb0"></path>
    <path d="M330.946,330.1v.991h-2.324v5.6h-1.264v-5.6H325V330.1Z" transform="translate(-215.002 -330.032)" fill="#146bb0"></path>
    <path d="M348.292,330.1a2.169,2.169,0,0,1,1.5.513,1.731,1.731,0,0,1,.581,1.333,1.96,1.96,0,0,1-.273.991,1.847,1.847,0,0,1-.854.649,1.461,1.461,0,0,1,.547.478,7.7,7.7,0,0,1,.615.991c.41.786.718,1.333.888,1.64h-1.435a7.026,7.026,0,0,1-.41-.683,14.609,14.609,0,0,0-.786-1.4,2.37,2.37,0,0,0-.478-.513,1,1,0,0,0-.547-.137h-.478v2.768H345.9v-6.6h2.392Zm-.308,2.836a1.14,1.14,0,0,0,.786-.239.834.834,0,0,0,.273-.684.9.9,0,0,0-.273-.683,1.377,1.377,0,0,0-.82-.239h-.786v1.845Z" transform="translate(-228.76 -330.032)" fill="#146bb0"></path>
    <path d="M365.464,330.1v3.827a2.107,2.107,0,0,0,.171.923,1.357,1.357,0,0,0,.581.581,1.693,1.693,0,0,0,.923.239,2.231,2.231,0,0,0,.991-.2,1.2,1.2,0,0,0,.581-.581,2.092,2.092,0,0,0,.205-1.025V330.1h1.264v3.93a2.676,2.676,0,0,1-.786,2.05,3.309,3.309,0,0,1-2.255.718,3.236,3.236,0,0,1-1.572-.342,2.316,2.316,0,0,1-1.025-.957,2.789,2.789,0,0,1-.342-1.435V330.1Z" transform="translate(-240.806 -330.032)" fill="#146bb0"></path>
    <path d="M389.393,329.9a3.843,3.843,0,0,1,1.094.137,4.992,4.992,0,0,1,1.162.444v1.2a5.312,5.312,0,0,0-1.128-.513,3.852,3.852,0,0,0-1.094-.171,2.987,2.987,0,0,0-1.264.273,2.156,2.156,0,0,0-1.2,1.982,2.4,2.4,0,0,0,.308,1.2,2.292,2.292,0,0,0,.889.82,2.551,2.551,0,0,0,1.264.273,3.222,3.222,0,0,0,1.025-.171,8.614,8.614,0,0,0,1.23-.547v1.2a6,6,0,0,1-1.162.478,4.622,4.622,0,0,1-1.264.137,4.215,4.215,0,0,1-1.879-.41,3.136,3.136,0,0,1-1.3-1.2,3.3,3.3,0,0,1-.478-1.709,3.457,3.457,0,0,1,.478-1.777,3.325,3.325,0,0,1,1.333-1.23A4.787,4.787,0,0,1,389.393,329.9Z" transform="translate(-254.894 -329.9)" fill="#146bb0"></path>
    <path d="M412.312,330.1v.991h-2.324v5.6h-1.264v-5.6H406.4V330.1Z" transform="translate(-268.586 -330.032)" fill="#146bb0"></path>
    <path d="M428.956,329.9a4.069,4.069,0,0,1,1.845.41,3.006,3.006,0,0,1,1.3,1.23,3.424,3.424,0,0,1,.478,1.743,3.3,3.3,0,0,1-.478,1.709,3.462,3.462,0,0,1-1.3,1.23,3.73,3.73,0,0,1-1.879.444,3.688,3.688,0,0,1-1.845-.444,3.461,3.461,0,0,1-1.3-1.23,3.3,3.3,0,0,1-.479-1.709,3.393,3.393,0,0,1,.479-1.709,3.005,3.005,0,0,1,1.3-1.23A3.729,3.729,0,0,1,428.956,329.9Zm-2.324,3.383a2.186,2.186,0,0,0,.308,1.162,2.356,2.356,0,0,0,.82.82,2.293,2.293,0,0,0,1.2.273,2.24,2.24,0,0,0,1.674-.649,2.113,2.113,0,0,0,.649-1.64,2.4,2.4,0,0,0-.308-1.2,2.355,2.355,0,0,0-.82-.82,2.292,2.292,0,0,0-1.2-.273,2.682,2.682,0,0,0-1.2.273,2.356,2.356,0,0,0-.82.82A2.435,2.435,0,0,0,426.633,333.283Z" transform="translate(-281.028 -329.9)" fill="#146bb0"></path>
    <path d="M453.192,330.1a2.169,2.169,0,0,1,1.5.513,1.731,1.731,0,0,1,.581,1.333,1.96,1.96,0,0,1-.273.991,1.847,1.847,0,0,1-.854.649,1.462,1.462,0,0,1,.547.478,7.682,7.682,0,0,1,.615.991c.41.786.718,1.333.888,1.64h-1.435a7.021,7.021,0,0,1-.41-.683,14.641,14.641,0,0,0-.786-1.4,2.372,2.372,0,0,0-.478-.513,1,1,0,0,0-.547-.137h-.478v2.768H450.8v-6.6h2.392Zm-.308,2.836a1.14,1.14,0,0,0,.786-.239.834.834,0,0,0,.273-.684.9.9,0,0,0-.273-.683,1.377,1.377,0,0,0-.82-.239h-.786v1.845Z" transform="translate(-297.814 -330.032)" fill="#146bb0"></path>
    <path d="M471.732,330.1l2.9,6.6H473.3l-.683-1.606h-2.939l-.649,1.606H467.7l2.7-6.6Zm-1.64,4.032h2.119l-1.128-2.6Z" transform="translate(-308.939 -330.032)" fill="#146bb0"></path>
  </g>
  <path d="M165.117,118.095A27.494,27.494,0,0,1,140.1,102H0v71.009H168.7V117.856A24.658,24.658,0,0,1,165.117,118.095Zm-115.056.239L31.848,157.973a.789.789,0,0,1-1.435,0L12.131,118.334a.8.8,0,0,1,.718-1.128H18.76a.74.74,0,0,1,.718.478L31.1,143.929l11.618-26.244a.83.83,0,0,1,.718-.478h5.843A.82.82,0,0,1,50.061,118.334Zm59.083,37.794a.773.773,0,0,1-.786.786H103.2a.773.773,0,0,1-.786-.786v-22.28c0-5.16-.342-11.482-7.279-11.482-7.791,0-8.611,7.518-8.611,13.532v20.264a.773.773,0,0,1-.786.786h-5.16a.773.773,0,0,1-.786-.786V134.395c0-4.887-.581-11.994-7.108-11.994-7.962,0-8.782,8.03-8.782,14.045V156.2a.773.773,0,0,1-.786.786h-5.16a.773.773,0,0,1-.786-.786v-38.2a.773.773,0,0,1,.786-.786h5.16a.773.773,0,0,1,.786.786v3.52h.171a11.263,11.263,0,0,1,9.568-5.4,12.227,12.227,0,0,1,11,6.6c2.358-4.408,7.108-6.6,11.926-6.6,10.149,0,12.678,8.27,12.678,16.642v23.373Zm42.612-2.6a.788.788,0,0,1-.376.683,21.172,21.172,0,0,1-11.721,3.793c-10.388.239-19.683-7.074-21.323-17.325a20.981,20.981,0,0,1,20.913-24.6,21.472,21.472,0,0,1,11.926,3.725.841.841,0,0,1,.342.683v8.543h-.171c-3.144-3.964-7.005-6.664-12.336-6.664-8.2,0-14.045,6.766-14.045,14.694,0,7.859,5.4,14.728,13.7,14.728,5.672,0,9.636-2.529,12.951-6.834h.171v8.577Z" transform="translate(0 -67.139)" fill="url(#a)"></path>
</svg>
