<?xml version="1.0" encoding="UTF-8"?>
<svg xmlns="http://www.w3.org/2000/svg" width="132.406" height="106.253" viewBox="0 0 132.406 106.253">
  <g transform="translate(-667.5 -35.999)">
    <g transform="translate(667.5 35.999)">
      <g transform="translate(0 0)">
        <path d="M33.6,115.609c1.392,0,2.574-.07,3.618-.139v.9c-1.6.348-2.853,1.739-3.757,4.035L22.255,148.8H21.49L9.87,119.366c-.765-1.948-1.879-2.992-3.27-2.992v-.9c1.322.07,2.992.139,5.079.139,2.714,0,4.731-.07,6.123-.139v.9a8.832,8.832,0,0,0-2.574.417,1.416,1.416,0,0,0-.765,1.322,6.964,6.964,0,0,0,.557,2.157l8.628,22.543,7.793-19.83a11.277,11.277,0,0,0,.9-3.827A2.359,2.359,0,0,0,31.3,117a6.133,6.133,0,0,0-3.131-.7v-.9Q30.778,115.609,33.6,115.609Z" transform="translate(-6.6 -43.031)" fill="#fff"></path>
        <path d="M62.71,150.134a2.309,2.309,0,0,0,1.113,1.044,5.584,5.584,0,0,0,2.087.278v.974c-2.853-.07-4.8-.209-5.705-.209s-2.783.07-5.705.209v-.974a5.819,5.819,0,0,0,2.087-.278,1.83,1.83,0,0,0,1.113-1.044,4.043,4.043,0,0,0,.348-2.018V133.436a5.552,5.552,0,0,0-.765-3.2c-.487-.7-1.461-.974-2.783-.974v-.974c.974.07,1.948.139,2.922.139a15.931,15.931,0,0,0,4.87-.626v20.317A6.8,6.8,0,0,0,62.71,150.134Z" transform="translate(-21.172 -46.803)" fill="#fff"></path>
        <path d="M62.492,115.817a2.854,2.854,0,0,1,1.113,1.113,2.805,2.805,0,0,1,.417,1.531,3.172,3.172,0,0,1-.417,1.531,2.854,2.854,0,0,1-1.113,1.113,2.8,2.8,0,0,1-1.531.418,3.171,3.171,0,0,1-1.531-.418,2.854,2.854,0,0,1-1.113-1.113,3.015,3.015,0,0,1,0-3.061,2.854,2.854,0,0,1,1.113-1.113,3.015,3.015,0,0,1,3.061,0Z" transform="translate(-22.207 -43.031)" fill="#fff"></path>
        <path d="M110.706,150.073a2.309,2.309,0,0,0,1.113,1.044,5.585,5.585,0,0,0,2.087.278v.974c-2.853-.07-4.731-.209-5.636-.209s-2.574.07-5.288.209V151.4a4.288,4.288,0,0,0,1.809-.278,1.531,1.531,0,0,0,.9-1.044,5.188,5.188,0,0,0,.278-2.018V134.488a16.825,16.825,0,0,0-.209-2.922,3.548,3.548,0,0,0-.974-1.809,3.319,3.319,0,0,0-2.366-.7,4.853,4.853,0,0,0-3.2,1.113,7.562,7.562,0,0,0-2.3,3.061,11.086,11.086,0,0,0-.835,4.314v10.506a4.043,4.043,0,0,0,.348,2.018,2.309,2.309,0,0,0,1.113,1.044,5.585,5.585,0,0,0,2.087.278v.974c-2.853-.07-4.731-.209-5.636-.209s-2.644.07-5.288.209V151.4a4.288,4.288,0,0,0,1.809-.278,1.387,1.387,0,0,0,.9-1.044,5.189,5.189,0,0,0,.278-2.018V134.488a16.826,16.826,0,0,0-.209-2.922,2.936,2.936,0,0,0-3.34-2.5,5.171,5.171,0,0,0-3.27,1.113,8.071,8.071,0,0,0-2.3,3.061,11.087,11.087,0,0,0-.835,4.314v10.437A5.188,5.188,0,0,0,82.041,150a1.8,1.8,0,0,0,.974,1.044,4.493,4.493,0,0,0,1.809.278v.974c-2.644-.07-4.383-.209-5.288-.209s-2.783.07-5.636.209v-.9a5.82,5.82,0,0,0,2.087-.278,1.831,1.831,0,0,0,1.113-1.044,4.044,4.044,0,0,0,.348-2.018V133.375a5.552,5.552,0,0,0-.765-3.2c-.487-.7-1.461-.974-2.783-.974v-.974c.974.07,1.948.139,2.922.139a15.93,15.93,0,0,0,4.87-.626v5.5a8.526,8.526,0,0,1,3.2-4.244,7.844,7.844,0,0,1,4.453-1.392,6.321,6.321,0,0,1,4.87,1.739,6.918,6.918,0,0,1,1.461,3.827,8.61,8.61,0,0,1,3.2-4.244,8.064,8.064,0,0,1,4.592-1.322,6.321,6.321,0,0,1,4.87,1.739,5.824,5.824,0,0,1,1.183,2.366,18.152,18.152,0,0,1,.348,3.757v12.524C110.359,148.891,110.428,149.586,110.706,150.073Z" transform="translate(-27.074 -46.742)" fill="#fff"></path>
        <path d="M147.146,129.579a4.527,4.527,0,0,0-3.2-.974c-2.226,0-3.757.557-4.662,1.67a2.836,2.836,0,0,1,2.157,2.853,2.827,2.827,0,0,1-.7,1.879,2.642,2.642,0,0,1-2.018.7,2.569,2.569,0,0,1-1.879-.765,2.987,2.987,0,0,1-.7-2.157,4.135,4.135,0,0,1,2.157-3.34,12.891,12.891,0,0,1,2.783-1.252,15.371,15.371,0,0,1,3.757-.487,10.35,10.35,0,0,1,3.409.487,4.673,4.673,0,0,1,2.3,1.322,5.558,5.558,0,0,1,1.461,2.574,15.578,15.578,0,0,1,.417,4.036V149.2a3.943,3.943,0,0,0,.278,1.739,1.149,1.149,0,0,0,1.113.487,1.963,1.963,0,0,0,1.044-.278,6.761,6.761,0,0,0,1.044-.7l.487.765a15.443,15.443,0,0,1-1.322.9,5.223,5.223,0,0,1-1.252.557,6.089,6.089,0,0,1-1.67.209,3.884,3.884,0,0,1-3.2-1.113,4.935,4.935,0,0,1-.9-2.992,7.981,7.981,0,0,1-3.27,3.2,8.851,8.851,0,0,1-3.9.9,8.18,8.18,0,0,1-2.992-.557,4.395,4.395,0,0,1-2.157-1.739,5.438,5.438,0,0,1-.835-2.992,4.984,4.984,0,0,1,.9-3.061,7.433,7.433,0,0,1,2.435-2.157,34.569,34.569,0,0,1,4.244-2.087c.278-.07,1.044-.417,2.226-.9a9.33,9.33,0,0,0,2.574-1.461,2.314,2.314,0,0,0,.765-1.6v-2.922C148.189,131.457,147.841,130.2,147.146,129.579Zm-.07,9.532c-.487.278-1.67.9-3.34,1.739a16.8,16.8,0,0,0-2.3,1.322,6.784,6.784,0,0,0-1.6,1.809,5.174,5.174,0,0,0-.7,2.783,4.186,4.186,0,0,0,1.044,3.061,3.67,3.67,0,0,0,2.714,1.044c2.087,0,3.827-1.183,5.288-3.548v-9.254A2.336,2.336,0,0,1,147.076,139.111Z" transform="translate(-45.632 -46.773)" fill="#fff"></path>
        <path d="M186.625,149.6a8.852,8.852,0,0,1-2.853,2.435,8.7,8.7,0,0,1-4.105.9,9.4,9.4,0,0,1-5.288-1.531,10.934,10.934,0,0,1-3.757-4.314,14.946,14.946,0,0,1-1.322-6.61,15.791,15.791,0,0,1,1.392-6.749,11.166,11.166,0,0,1,3.9-4.662,10,10,0,0,1,5.705-1.67,9.6,9.6,0,0,1,5.5,1.531,4.2,4.2,0,0,1,2.157,3.618,2.578,2.578,0,0,1-.7,1.948,2.308,2.308,0,0,1-1.739.7,2.725,2.725,0,0,1-1.809-.626,2.115,2.115,0,0,1-.7-1.739,2.539,2.539,0,0,1,.557-1.67,2.711,2.711,0,0,1,1.392-.9,3.4,3.4,0,0,0-1.67-1.392,6.586,6.586,0,0,0-2.574-.557,5.121,5.121,0,0,0-3.2,1.113,8.292,8.292,0,0,0-2.5,3.618,18.468,18.468,0,0,0-.974,6.749c0,3.9.626,6.749,1.879,8.489a5.758,5.758,0,0,0,4.87,2.644,7.155,7.155,0,0,0,3.827-1.113,8.31,8.31,0,0,0,2.992-3.618l.9.278C187.877,147.508,187.321,148.552,186.625,149.6Z" transform="translate(-56.097 -46.682)" fill="#fff"></path>
        <g transform="translate(32.006)">
          <path d="M96.016,76.127H90.8L67.768,21.3a35.891,35.891,0,1,0,51,10.3,4.86,4.86,0,0,0-1.113.9c-2.3,2.5-4.94,6.958-8,13.568Z" transform="translate(-52.6 -14.403)" fill="#fff"></path>
          <path d="M110.779,59.753c1.113-2.366,2.157-4.662,3.757-8.349h0l12.107-29.292a35.731,35.731,0,0,0-23.308-10.645l.07-.07h0c-8.558-.209-9.95,3.479-9.532,6.958v.139a8.04,8.04,0,0,0,.487,1.948v.07c.487,1.392,1.322,3.548,2.435,6.332Z" transform="translate(-65.136 -11.388)" fill="#fff"></path>
        </g>
      </g>
    </g>
  </g>
</svg>
