<svg width="90" height="90" viewBox="0 0 90 90" fill="none" xmlns="http://www.w3.org/2000/svg">
<g clip-path="url(#clip0_2614_5939)">
<path d="M90 0H0V90H90V0Z" fill="#1D1D1B"/>
<path fill-rule="evenodd" clip-rule="evenodd" d="M11.5779 50.5497H12.9521V39.2733H11.5779V50.5497ZM11.5779 37.1551H12.9521V34.9499H11.5779V37.1551Z" fill="white"/>
<path fill-rule="evenodd" clip-rule="evenodd" d="M14.8632 50.5497H16.2359V44.2552C16.2584 41.903 17.2199 40.1088 19.5991 40.1088C21.3453 40.1088 21.9798 41.375 21.9543 42.9021V50.5497H23.3269V44.1697C23.3269 42.074 24.005 40.1088 26.3872 40.1088C28.3494 40.1088 29.0484 41.1094 29.0514 42.9696V50.5497H30.4225V42.9021C30.4225 40.2364 29.1549 38.9508 26.6902 38.9508C25.2081 38.9508 23.786 39.6693 23.1139 41.1544C22.6954 39.6693 21.3648 38.9478 19.8797 38.9478C18.093 38.9478 16.9139 39.8223 16.1938 41.1739H16.1278V39.2778H14.8572L14.8632 50.5497Z" fill="white"/>
<path fill-rule="evenodd" clip-rule="evenodd" d="M39.5148 46.1784C39.5358 48.3821 37.6831 49.7172 35.5844 49.7172C34.3018 49.7172 33.0762 48.8666 33.0762 47.491C33.0762 45.2858 35.979 45.3023 38.3132 44.8943C38.6852 44.8253 39.2973 44.7172 39.4683 44.3887H39.5148V46.1799V46.1784ZM33.5533 42.7281C33.6013 40.8934 34.8599 40.1074 36.567 40.1074C38.1782 40.1074 39.5133 40.5649 39.5133 42.4251C39.5133 43.6687 38.8817 43.8202 37.7446 43.9507C34.7774 44.3002 31.7006 44.4112 31.7006 47.575C31.7006 49.8492 33.4078 50.8723 35.4704 50.8723C37.6351 50.8723 38.6192 50.0487 39.5793 48.5816H39.6198C39.6198 49.7637 39.8433 50.5497 41.2384 50.5497C41.6089 50.5497 41.8265 50.5242 42.131 50.4627V49.3061C42.026 49.3496 41.8475 49.3916 41.696 49.3916C41.1544 49.3916 40.8859 49.0856 40.8859 48.5606V42.5781C40.8859 39.5613 38.7287 38.9523 36.744 38.9523C34.1683 38.9523 32.3157 40.0879 32.1807 42.7296H33.5548L33.5533 42.7281Z" fill="white"/>
<path fill-rule="evenodd" clip-rule="evenodd" d="M47.4249 49.2626C44.8897 49.2626 43.7121 47.0544 43.7121 44.7833C43.7121 42.5121 44.8027 40.1089 47.4249 40.1089C50.0472 40.1089 51.0432 42.5766 51.0432 44.7833C51.0432 46.9899 49.7996 49.2626 47.4249 49.2626ZM52.4204 39.2778H51.0447V41.2235H50.9997C50.4552 39.9754 49.0586 38.9523 47.4264 38.9523C44.1742 38.9523 42.335 41.528 42.341 44.6302C42.341 47.842 43.8261 50.4207 47.4264 50.4207C49.0436 50.4207 50.3667 49.4816 50.9997 48.103H51.0447V49.6347C51.0447 52.3844 49.9557 53.892 47.4264 53.892C45.8963 53.892 44.4352 53.3085 44.1307 51.6433H42.7566C42.9486 54.0465 45.1793 55.0516 47.4264 55.0516C51.1077 55.0516 52.3964 52.9979 52.4219 49.6362V39.2808L52.4204 39.2778Z" fill="white"/>
<path fill-rule="evenodd" clip-rule="evenodd" d="M54.327 50.5512H55.7011V39.2778H54.327V50.5512ZM54.327 37.1596H55.7011V34.9514H54.327V37.1596Z" fill="white"/>
<path fill-rule="evenodd" clip-rule="evenodd" d="M57.5898 50.5512H58.9624V43.9747C59.0044 41.7725 60.3125 40.1104 62.4952 40.1104C64.6778 40.1104 65.3514 41.5715 65.3514 43.5171V50.5512H66.7345V43.2996C66.7345 40.6114 65.7699 38.9523 62.6062 38.9523C61.0145 38.9523 59.5069 39.8703 59.0029 41.2235H58.9609V39.2778H57.5883V50.5512H57.5898Z" fill="white"/>
<path fill-rule="evenodd" clip-rule="evenodd" d="M75.8043 46.1783C75.8223 48.388 73.9696 49.7216 71.88 49.7216C70.5869 49.7216 69.3643 48.8666 69.3643 47.4895C69.3643 45.2888 72.27 45.3008 74.6027 44.8927C74.9747 44.8237 75.5838 44.7157 75.7578 44.3887H75.8043V46.1783ZM69.8443 42.7281C69.8908 40.8934 71.1524 40.1073 72.8581 40.1073C74.4662 40.1073 75.8028 40.5649 75.8028 42.425C75.8028 43.6701 75.1712 43.8247 74.0341 43.9507C71.0654 44.3002 67.9886 44.4112 67.9886 47.5825C67.9886 49.8492 69.6913 50.8767 71.763 50.8767C73.8346 50.8767 74.9087 50.0487 75.8643 48.5815H75.9108C75.9108 49.7636 76.1298 50.5497 77.5249 50.5497C77.894 50.5497 78.1145 50.5272 78.4175 50.4612V49.3046C78.305 49.3481 78.1325 49.3901 77.981 49.3901C77.4379 49.3901 77.1754 49.0841 77.1754 48.559V42.5765C77.1754 39.5583 75.0122 38.9507 73.0276 38.9507C70.4519 38.9507 68.6022 40.0863 68.4702 42.7281H69.8428H69.8443Z" fill="white"/>
</g>
<defs>
<clipPath id="clip0_2614_5939">
<rect width="90" height="90" fill="white"/>
</clipPath>
</defs>
</svg>
