<?xml version="1.0" encoding="UTF-8"?> <svg xmlns="http://www.w3.org/2000/svg" xmlns:xlink="http://www.w3.org/1999/xlink" version="1.1" id="Layer_1" x="0px" y="0px" viewBox="0 0 134.4 36.1" style="enable-background:new 0 0 134.4 36.1;" xml:space="preserve"> <style type="text/css"> .st0{fill:#FFFFFF;} </style> <g> <path class="st0" d="M122.3,21.1h9l1.4,2.4h1.7l-6.6-11.2h-1.9l-6.6,11.2h1.7L122.3,21.1z M126.8,13.5l3.8,6.3h-7.5L126.8,13.5z"></path> <path class="st0" d="M49.5,23.6h6.2c2.8,0,3.8-1.1,3.8-4.1v-1.5h-7.2v1.2H58v1.1c0,1.6-0.9,2.1-2.4,2.1h-5.9 c-1.5,0-2.6-0.4-2.6-2.4v-4.2c0-1.9,1.2-2.4,2.6-2.4h3.9c3.7,0,4.4,0.1,4.4,2.2h1.4v-0.4c0-2.6-2.1-3.1-4.2-3.1h-5.7 c-3,0-4,1.4-4,4.2v3.1C45.5,22.2,46.5,23.6,49.5,23.6"></path> <path class="st0" d="M92.3,19.1h7.4c3.3,0,3.5-1.2,3.5-3.7c0-2.6-1.2-3-3.2-3h-9.2v11.2h1.5V19.1z M92.3,13.5h7.3 c1.3,0,2,0.3,2,1.7v1.1c0,1.2-0.7,1.6-1.9,1.6h-7.4V13.5z"></path> <path class="st0" d="M113.6,17.2h-4.5c-2.4,0-2.8-0.4-2.8-1.8c0-1.9,1-2,3.9-2h1.6c4,0,4.2,0.3,4.2,2.1h1.4v-0.4 c0-2-0.9-2.9-4.7-2.9h-3.2c-3.1,0-4.6,0.6-4.6,3.1c0,3,1.5,3.2,6.1,3.2h2.9c1.9,0,2.4,0.4,2.4,1.8c0,1.6-0.6,2.1-2.9,2.1h-4.7 c-1.9,0-2.5-0.5-2.5-1.6V20H105v0.8c0,2.4,2,2.8,4.2,2.8h4.2c2.2,0,4.5-0.2,4.5-3v-0.7C117.8,18,116.6,17.2,113.6,17.2"></path> <polygon class="st0" points="78.9,18.3 88,18.3 88,17.1 78.9,17.1 78.9,13.5 88.4,13.5 88.4,12.3 77.4,12.3 77.4,23.5 88.4,23.5 88.4,22.2 78.9,22.2 "></polygon> <path class="st0" d="M74.6,23.5v-2.9c0-1-0.4-1.8-1.9-2.1v0c1.2-0.1,2.1-0.5,2.1-2.1v-0.9c0-2.1-0.5-3.2-3.7-3.2h-8.9v11.2h1.5 v-4.4H71c1.4,0,2.2,0.2,2.2,2v2.5H74.6z M70.9,17.8h-7.3v-4.3h6.9c2.2,0,2.8,0.4,2.8,1.7v1C73.3,17.4,72.5,17.8,70.9,17.8"></path> <path class="st0" d="M2.4,33.7h31.3V2.4H2.4V33.7z M28.7,20.7c0,4.5-1.5,6.1-5.6,6.1h-9.2c-4.5,0-5.9-2-5.9-6.2v-4.5 c0-4.2,1.4-6.2,5.9-6.2h8.5c3,0,6.2,0.7,6.2,4.5V15h-2.1c0-3.1-0.9-3.3-6.5-3.3h-5.8c-2.2,0-3.9,0.6-3.9,3.5v6.2 c0,2.9,1.7,3.5,3.9,3.5h8.8c2.2,0,3.6-0.8,3.6-3.1v-1.7h-8.5v-1.8h10.7V20.7z"></path> <path class="st0" d="M0,36.1h36.1V0H0V36.1z M35.6,35.6H0.5V0.5h35.1V35.6z"></path> </g> </svg> 