<?xml version="1.0" encoding="UTF-8" standalone="no"?>
<!-- Created with Inkscape (http://www.inkscape.org/) -->

<svg
   width="249.99998"
   height="111"
   viewBox="0 0 66.145828 29.36875"
   version="1.1"
   id="svg1"
   xmlns="http://www.w3.org/2000/svg"
   xmlns:svg="http://www.w3.org/2000/svg">
  <defs
     id="defs1" />
  <g
     id="layer1">
    <g
       id="g30"
       transform="matrix(0.08897636,0,0,0.08897636,-2.5176277,-10.446205)">
      <path
         class="cls-3"
         d="m 312.63,364.02 c -23.98,0 -40.1,14.63 -40.1,36.41 0,24.45 20.78,35.58 40.1,35.58 19.32,0 40.1,-11.13 40.1,-35.58 0,-21.78 -16.11,-36.41 -40.1,-36.41 z m 0,63.13 c -18.86,0 -30.13,-10.54 -30.13,-28.2 0,-15.57 12.39,-26.44 30.13,-26.44 17.74,0 30.13,10.87 30.13,26.44 0,20.79 -15.57,28.2 -30.13,28.2 z"
         id="path1"
         style="fill:#1d1d1b" />
      <polygon
         class="cls-3"
         points="140.47,434.32 196.11,434.32 199.54,424.81 150.88,424.81 150.88,366.18 140.47,366.18 "
         id="polygon1"
         style="fill:#1d1d1b" />
      <polygon
         class="cls-2"
         points="682.94,434.32 738.59,434.32 742.01,424.81 693.35,424.81 693.35,366.18 682.94,366.18 "
         id="polygon2"
         style="fill:#bd1622" />
      <polygon
         class="cls-3"
         points="232.81,375.68 264.52,375.68 264.52,366.18 190.69,366.18 190.69,375.68 222.4,375.68 222.4,434.32 232.81,434.32 "
         id="polygon3"
         style="fill:#1d1d1b" />
      <polygon
         class="cls-2"
         points="398.86,433.58 399.18,434.32 407.47,434.32 431.28,379.92 431.28,434.32 441.06,434.32 441.06,366.18 426.73,366.18 403.24,419.64 379.74,366.18 365.42,366.18 365.42,434.32 375.2,434.32 375.2,379.88 "
         id="polygon4"
         style="fill:#bd1622" />
      <polygon
         class="cls-2"
         points="457.33,434.32 519.42,434.32 519.42,424.81 467.74,424.81 467.74,403.69 493.9,403.69 493.9,394.19 467.74,394.19 467.74,375.68 514.77,375.68 518.99,366.18 457.33,366.18 "
         id="polygon5"
         style="fill:#bd1622" />
      <polygon
         class="cls-2"
         points="569.31,375.68 601.02,375.68 601.02,366.18 530.75,366.18 526.53,375.68 558.9,375.68 558.9,434.32 569.31,434.32 "
         id="polygon6"
         style="fill:#bd1622" />
      <polygon
         class="cls-2"
         points="31.27,434.3 41.55,434.3 76.6,366.16 66.32,366.16 "
         id="polygon7"
         style="fill:#bd1622" />
      <polygon
         class="cls-3"
         points="81.65,407.74 72.73,407.74 88.37,376.4 103.99,407.74 88.22,407.74 83.33,417.24 108.74,417.24 117.23,434.32 128.95,434.32 93.99,366.18 82.73,366.18 47.68,434.32 59.31,434.32 67.89,417.24 76.61,417.24 "
         id="polygon8"
         style="fill:#1d1d1b" />
      <polygon
         class="cls-2"
         points="623.61,407.74 614.69,407.74 630.32,376.4 645.95,407.74 630.18,407.74 625.28,417.24 650.69,417.24 659.19,434.32 670.9,434.32 635.95,366.18 624.69,366.18 589.64,434.32 601.26,434.32 609.85,417.24 618.57,417.24 "
         id="polygon9"
         style="fill:#bd1622" />
      <g
         id="g29">
        <path
           class="cls-3"
           d="m 754.58,438.8 v -10.36 h 4.59 c 0.93,0 1.63,0.09 2.11,0.28 0.48,0.19 0.86,0.52 1.15,0.99 0.29,0.47 0.43,0.99 0.43,1.56 0,0.74 -0.24,1.36 -0.71,1.86 -0.48,0.5 -1.21,0.83 -2.2,0.96 0.36,0.17 0.64,0.35 0.83,0.52 0.4,0.37 0.78,0.83 1.14,1.38 l 1.8,2.82 H 762 l -1.37,-2.16 c -0.4,-0.62 -0.73,-1.1 -0.99,-1.43 -0.26,-0.33 -0.49,-0.56 -0.69,-0.69 -0.21,-0.13 -0.42,-0.22 -0.63,-0.28 -0.16,-0.03 -0.41,-0.05 -0.77,-0.05 h -1.59 v 4.6 h -1.37 z m 1.38,-5.78 h 2.95 c 0.63,0 1.11,-0.06 1.47,-0.19 0.35,-0.13 0.62,-0.34 0.81,-0.62 0.18,-0.28 0.28,-0.6 0.28,-0.93 0,-0.49 -0.18,-0.89 -0.53,-1.21 -0.36,-0.32 -0.92,-0.47 -1.69,-0.47 h -3.28 v 3.43 z"
           id="path28"
           style="fill:#1d1d1b" />
        <path
           class="cls-3"
           d="m 758.79,443.63 c -5.48,0 -9.94,-4.46 -9.94,-9.94 0,-5.48 4.46,-9.94 9.94,-9.94 5.48,0 9.94,4.46 9.94,9.94 0,5.48 -4.46,9.94 -9.94,9.94 z m 0,-18.22 c -4.56,0 -8.28,3.72 -8.28,8.28 0,4.56 3.71,8.28 8.28,8.28 4.57,0 8.28,-3.72 8.28,-8.28 0,-4.56 -3.72,-8.28 -8.28,-8.28 z"
           id="path29"
           style="fill:#1d1d1b" />
      </g>
    </g>
    <g
       id="g38"
       transform="matrix(0.08897636,0,0,0.08897636,-1.2127893,-10.446205)">
      <path
         class="cls-4"
         d="m 385.32,185.1 c 15.14,0 26.1,8.82 26.1,23.64 0,15.8 -13.23,23.1 -26.1,23.1 -12.87,0 -26.09,-7.3 -26.09,-23.1 0,-14.82 10.96,-23.64 26.09,-23.64 z"
         id="path30"
         style="fill:#bf0d0d" />
      <path
         class="cls-3"
         d="m 401.09,147.4 v -6.81 c 0,0 -0.01,-0.32 -0.1,-0.39 -0.1,-0.1 -0.42,-0.09 -0.42,-0.09 H 399 c 0,0 -0.38,0 -0.48,-0.05 -0.13,-0.08 -0.27,-0.48 -0.27,-0.48 l -7.53,-16.25 c 0,0 -0.71,-1.4 -1.12,-1.64 -0.32,-0.19 -1.08,-0.3 -1.68,-0.34 l -2.59,-0.08 -2.59,0.08 c -0.62,0.04 -1.38,0.14 -1.69,0.34 -0.41,0.24 -1.12,1.64 -1.12,1.64 l -7.54,16.25 c 0,0 -0.14,0.41 -0.26,0.48 -0.1,0.06 -0.48,0.05 -0.48,0.05 h -1.57 c 0,0 -0.32,0 -0.41,0.1 -0.09,0.07 -0.09,0.39 -0.09,0.39 v 6.81 c 0,0 -0.04,0.54 0.09,0.67 0.1,0.11 0.48,0.05 0.48,0.05 h 1.14 c 0,0 0.42,-0.04 0.54,0.05 0.13,0.09 0.22,0.53 0.22,0.53 l 3.63,11.93 h 19.29 l 3.63,-11.93 c 0,0 0.09,-0.44 0.22,-0.52 0.11,-0.09 0.54,-0.05 0.54,-0.05 h 1.14 c 0,0 0.38,0.05 0.48,-0.05 0.13,-0.14 0.11,-0.67 0.11,-0.67 z"
         id="path31"
         style="fill:#1d1d1b" />
      <path
         class="cls-3"
         d="m 369.56,269.53 v 6.81 c 0,0 0,0.33 0.1,0.41 0.09,0.09 0.41,0.09 0.41,0.09 h 1.59 c 0,0 0.36,-0.01 0.46,0.06 0.13,0.07 0.26,0.48 0.26,0.48 l 7.54,16.25 c 0,0 0.71,1.4 1.13,1.65 0.3,0.18 1.06,0.29 1.68,0.32 l 2.59,0.08 2.59,-0.08 c 0.61,-0.03 1.38,-0.13 1.68,-0.32 0.41,-0.26 1.12,-1.67 1.12,-1.67 l 7.53,-16.24 c 0,0 0.14,-0.41 0.28,-0.48 0.09,-0.07 0.47,-0.06 0.47,-0.06 h 1.58 c 0,0 0.32,0 0.42,-0.09 0.08,-0.08 0.09,-0.41 0.09,-0.41 v -6.81 c 0,0 0.04,-0.54 -0.09,-0.66 -0.11,-0.11 -0.49,-0.07 -0.49,-0.07 h -1.13 c 0,0 -0.44,0.05 -0.55,-0.05 -0.13,-0.09 -0.21,-0.52 -0.21,-0.52 l -3.64,-11.93 h -19.29 l -3.63,11.93 c 0,0 -0.1,0.43 -0.22,0.52 -0.11,0.09 -0.54,0.05 -0.54,0.05 h -1.14 c 0,0 -0.38,-0.05 -0.49,0.06 -0.13,0.13 -0.1,0.67 -0.1,0.67 z"
         id="path32"
         style="fill:#1d1d1b" />
      <path
         class="cls-3"
         d="m 446.39,224.24 h 6.81 c 0,0 0.32,-0.02 0.41,-0.11 0.09,-0.09 0.08,-0.42 0.08,-0.42 v -1.57 c 0,0 0,-0.37 0.06,-0.48 0.07,-0.14 0.49,-0.26 0.49,-0.26 l 16.24,-7.55 c 0,0 1.39,-0.72 1.65,-1.13 0.2,-0.3 0.29,-1.07 0.33,-1.67 l 0.08,-2.59 -0.08,-2.59 c -0.03,-0.62 -0.13,-1.38 -0.32,-1.69 -0.26,-0.41 -1.66,-1.13 -1.66,-1.13 l -16.24,-7.53 c 0,0 -0.41,-0.14 -0.49,-0.26 -0.06,-0.1 -0.06,-0.48 -0.06,-0.48 v -1.57 c 0,0 0.01,-0.34 -0.08,-0.42 -0.09,-0.09 -0.4,-0.1 -0.4,-0.1 h -6.81 c 0,0 -0.54,-0.03 -0.67,0.1 -0.1,0.09 -0.05,0.48 -0.05,0.48 v 1.14 c 0,0 0.04,0.43 -0.05,0.54 -0.09,0.12 -0.53,0.22 -0.53,0.22 l -11.93,3.64 v 12.23 c 0,0 0,7.06 0,7.06 l 11.94,3.62 c 0,0 0.43,0.11 0.53,0.23 0.09,0.12 0.05,0.54 0.05,0.54 v 1.14 c 0,0 -0.05,0.38 0.05,0.48 0.13,0.13 0.67,0.11 0.67,0.11 z"
         id="path33"
         style="fill:#1d1d1b" />
      <path
         class="cls-3"
         d="m 324.25,192.71 h -6.8 c 0,0 -0.32,0 -0.4,0.1 -0.09,0.08 -0.09,0.42 -0.09,0.42 v 1.56 c 0,0 0.01,0.38 -0.05,0.48 -0.07,0.12 -0.49,0.26 -0.49,0.26 l -16.24,7.53 c 0,0 -1.4,0.7 -1.65,1.13 -0.19,0.31 -0.29,1.07 -0.32,1.69 l -0.08,2.59 0.08,2.59 c 0.04,0.61 0.13,1.38 0.32,1.67 0.26,0.42 1.65,1.13 1.65,1.13 l 16.24,7.55 c 0,0 0.41,0.12 0.49,0.26 0.07,0.1 0.05,0.48 0.05,0.48 v 1.57 c 0,0 0,0.33 0.09,0.42 0.09,0.08 0.4,0.09 0.4,0.09 h 6.8 c 0,0 0.54,0.04 0.66,-0.09 0.11,-0.1 0.07,-0.48 0.07,-0.48 v -1.13 c 0,0 -0.04,-0.43 0.05,-0.55 0.09,-0.12 0.52,-0.23 0.52,-0.23 l 11.95,-3.62 v -12.24 c 0,0 -0.01,-7.05 -0.01,-7.05 l -11.93,-3.64 c 0,0 -0.43,-0.1 -0.52,-0.22 -0.09,-0.11 -0.05,-0.54 -0.05,-0.54 v -1.14 c 0,0 0.05,-0.39 -0.07,-0.48 -0.11,-0.13 -0.66,-0.1 -0.66,-0.1 z"
         id="path34"
         style="fill:#1d1d1b" />
      <path
         class="cls-3"
         d="m 357.87,139.07 c -23.56,6.37 -40.93,21.27 -48.91,41.94 l -0.59,1.53 h 20.3 l 0.32,-0.61 c 6.04,-11.77 16.27,-20.62 29.58,-25.6 l 0.73,-0.27 v -17.37 l -1.42,0.38 z"
         id="path35"
         style="fill:#1d1d1b" />
      <path
         class="cls-3"
         d="m 461.68,181.01 c -7.98,-20.67 -25.34,-35.57 -48.9,-41.94 l -1.42,-0.38 v 17.37 l 0.73,0.27 c 13.31,4.98 23.53,13.84 29.57,25.6 l 0.32,0.61 h 20.29 z"
         id="path36"
         style="fill:#1d1d1b" />
      <path
         class="cls-3"
         d="m 358.55,260.2 c -13.2,-4.76 -23.26,-13.4 -29.1,-24.97 l -0.31,-0.62 h -21.03 l 0.59,1.53 c 7.81,20.21 25.28,35.03 49.17,41.72 l 1.43,0.4 v -17.8 l -0.74,-0.27 z"
         id="path37"
         style="fill:#1d1d1b" />
      <path
         class="cls-3"
         d="m 441.46,234.62 -0.32,0.62 c -5.85,11.5 -15.89,20.11 -29.04,24.91 l -0.74,0.27 v 17.85 l 1.43,-0.4 c 23.89,-6.69 41.35,-21.5 49.17,-41.72 l 0.59,-1.53 h -21.1 z"
         id="path38"
         style="fill:#1d1d1b" />
    </g>
  </g>
</svg>
