<svg xmlns="http://www.w3.org/2000/svg" width="196.942" height="37.075" viewBox="0 0 196.942 37.075">
  <g id="Oxiquim" transform="translate(-38.9 -98)">
    <path id="Trazado_25" data-name="Trazado 25" d="M89.453,98H57.594L38.9,116.541l18.7,18.534H89.461l18.7-18.534Zm-4.842,26.78H62.444l-8.315-8.238,8.315-8.238,22.167.008,8.307,8.23Z" transform="translate(0 0)" fill="#007dba"/>
    <path id="Trazado_26" data-name="Trazado 26" d="M308.925,259.6H289.534l-6.234,6.173,6.234,6.181h19.391l6.234-6.181Z" transform="translate(-225.705 -149.239)" fill="#007dba"/>
    <rect id="Rect치ngulo_1341" data-name="Rect치ngulo 1341" width="6.892" height="16.476" transform="translate(134.805 108.303)" fill="#007dba"/>
    <path id="Trazado_27" data-name="Trazado 27" d="M1771.968,241.642c0,1.369-.734,2-2.272,2h-6.188c-1.637,0-2.6-.482-2.6-1.989V232.7H1754.1v11.711a4.816,4.816,0,0,0,4.628,4.765h14.947c2.73,0,5.339-2.081,5.339-4.872V232.7h-7.045C1771.976,236.081,1771.96,238.314,1771.968,241.642Z" transform="translate(-1584.002 -124.397)" fill="#007dba"/>
    <rect id="Rect치ngulo_1342" data-name="Rect치ngulo 1342" width="6.915" height="16.476" transform="translate(196.724 108.296)" fill="#007dba"/>
    <path id="Trazado_29" data-name="Trazado 29" d="M901.07,232.7l-5.492,5.439-5.507-5.431-9.37-.008,8.3,8.261-8.3,8.208h9.041l5.775-5.714,5.729,5.714h9.248l-8.3-8.23,8.3-8.238Z" transform="translate(-777.41 -124.397)" fill="#007dba"/>
    <path id="Trazado_30" data-name="Trazado 30" d="M1426.266,232.6h-17.325a3.432,3.432,0,0,0-3.641,3.687v9.21a3.606,3.606,0,0,0,3.672,3.572h9.745l.933,2.67h7.4l-1.736-2.67h1.76c2.264,0,3.213-1.729,3.213-3.572v-9.263C1430.267,233.977,1428.66,232.6,1426.266,232.6Zm-2.654,9.684c-.008.8-.329,1.216-1.033,1.216h-.765l-.91-1.4h-4.475l.49,1.392-3.442.008a1,1,0,0,1-1.109-1v-3.021a1.036,1.036,0,0,1,1.109-1.063h9.125a1.053,1.053,0,0,1,1.017,1.186v2.685Z" transform="translate(-1261.882 -124.304)" fill="#007dba"/>
    <path id="Trazado_31" data-name="Trazado 31" d="M2230.275,241.931l-4.979-9.408H2215v16.461h7.557l-.015-7.84,4.268,7.84h7.328l3.909-7.764-.015,7.764h7.458V232.5l-10.036.023Z" transform="translate(-2009.647 -124.212)" fill="#007dba"/>
  </g>
</svg>
